<?xml version="1.0" encoding="UTF-8" standalone="no"?>
<!-- Created with Inkscape (http://www.inkscape.org/) -->

<svg
   xmlns:dc="http://purl.org/dc/elements/1.1/"
   xmlns:cc="http://creativecommons.org/ns#"
   xmlns:rdf="http://www.w3.org/1999/02/22-rdf-syntax-ns#"
   xmlns:svg="http://www.w3.org/2000/svg"
   xmlns="http://www.w3.org/2000/svg"
   xmlns:xlink="http://www.w3.org/1999/xlink"
   xmlns:sodipodi="http://sodipodi.sourceforge.net/DTD/sodipodi-0.dtd"
   xmlns:inkscape="http://www.inkscape.org/namespaces/inkscape"
   width="744.09448819"
   height="1052.3622047"
   id="svg3133"
   version="1.1"
   inkscape:version="0.48.5 r10040"
   sodipodi:docname="wizlogo5.svg">
  <defs
     id="defs3135">
    <linearGradient
       gradientTransform="matrix(0.29639972,0,0,0.29639972,304.28456,-789.29936)"
       inkscape:collect="always"
       xlink:href="#linearGradient3944-1"
       id="linearGradient3950"
       x1="0"
       y1="3052.3623"
       x2="0"
       y2="3452.3623"
       gradientUnits="userSpaceOnUse" />
    <linearGradient
       id="linearGradient3944-1">
      <stop
         style="stop-color:#666666;stop-opacity:1;"
         offset="0"
         id="stop3946-7" />
      <stop
         style="stop-color:#222222;stop-opacity:1;"
         offset="1"
         id="stop3948-4" />
    </linearGradient>
    <linearGradient
       inkscape:collect="always"
       xlink:href="#coin-gradient-0"
       id="linearGradient3970"
       gradientUnits="userSpaceOnUse"
       x1="1010"
       y1="822.36218"
       x2="1010"
       y2="892.36218"
       gradientTransform="matrix(3.7947594,0,0,3.7947594,-4345.033,-304.84671)" />
    <linearGradient
       y2="63.996323"
       x2="0.0004394635"
       y1="-0.00059563987"
       x1="0.0004394635"
       id="coin-gradient-0"
       gradientTransform="scale(0.99994167,1.0000583)"
       gradientUnits="userSpaceOnUse">
      <stop
         id="stop12-9"
         style="stop-color:#f9aa4b"
         offset="0%" />
      <stop
         id="stop14-4"
         style="stop-color:#f7931a"
         offset="100%" />
    </linearGradient>
    <linearGradient
       inkscape:collect="always"
       xlink:href="#linearGradient3975"
       id="linearGradient3966"
       gradientUnits="userSpaceOnUse"
       x1="1000"
       y1="872.36218"
       x2="1000"
       y2="1052.3622"
       gradientTransform="matrix(3.7947594,0,0,3.7947594,-4345.033,-304.84671)" />
    <linearGradient
       gradientUnits="userSpaceOnUse"
       gradientTransform="scale(0.99994167,1.0000583)"
       id="linearGradient3975"
       x1="0.0004394635"
       y1="-0.00059563987"
       x2="0.0004394635"
       y2="63.996323">
      <stop
         offset="0"
         style="stop-color:#f89d2e;stop-opacity:1;"
         id="stop3977" />
      <stop
         offset="1"
         style="stop-color:#d17607;stop-opacity:1;"
         id="stop3979" />
    </linearGradient>
    <linearGradient
       inkscape:collect="always"
       xlink:href="#coin-gradient-0"
       id="linearGradient3962"
       gradientUnits="userSpaceOnUse"
       x1="1000"
       y1="882.36218"
       x2="1000"
       y2="1042.3622"
       gradientTransform="matrix(3.7947594,0,0,3.7947594,-4345.033,-304.84671)" />
  </defs>
  <sodipodi:namedview
     id="base"
     pagecolor="#ffffff"
     bordercolor="#666666"
     borderopacity="1.0"
     inkscape:pageopacity="0.0"
     inkscape:pageshadow="2"
     inkscape:zoom="0.35"
     inkscape:cx="375"
     inkscape:cy="520"
     inkscape:document-units="px"
     inkscape:current-layer="layer1"
     showgrid="false"
     inkscape:window-width="928"
     inkscape:window-height="814"
     inkscape:window-x="75"
     inkscape:window-y="195"
     inkscape:window-maximized="0" />
  <metadata
     id="metadata3138">
    <rdf:RDF>
      <cc:Work
         rdf:about="">
        <dc:format>image/svg+xml</dc:format>
        <dc:type
           rdf:resource="http://purl.org/dc/dcmitype/StillImage" />
        <dc:title />
      </cc:Work>
    </rdf:RDF>
  </metadata>
  <g
     inkscape:label="Layer 1"
     inkscape:groupmode="layer"
     id="layer1">
    <g
       transform="matrix(0.29639972,0,0,0.29639972,304.28456,-789.29937)"
       id="g3972"
       inkscape:export-filename="C:\Users\Kim\Projects\wizsec\webtemplates\html\assets\images\wizlogo4.png"
       inkscape:export-xdpi="21.959999"
       inkscape:export-ydpi="21.959999">
      <path
         sodipodi:nodetypes="zccsccz"
         inkscape:connector-curvature="0"
         id="path3942"
         d="m -550.2736,2819.6147 c -170.76417,0 -246.65936,147.9956 -257.09495,241.6787 47.58932,-2.3259 72.35339,-7.0179 105.30457,-14.3997 18.9738,-75.8952 70.17129,-136.2048 151.79038,-136.2048 81.6192,0 132.81658,60.3096 151.79038,136.2048 32.95141,7.3818 57.71525,12.0738 105.30457,14.3997 -10.43559,-93.6831 -86.33078,-241.6787 -257.09495,-241.6787 z"
         style="fill:url(#linearGradient3970);fill-opacity:1;stroke:none" />
      <path
         style="fill:url(#linearGradient3966);fill-opacity:1;stroke:none"
         d="m -853.85435,3081.4531 c 0,569.2139 303.58075,607.1615 303.58075,607.1615 0,0 303.58075,-37.9476 303.58075,-607.1615 -227.68556,0 -303.58075,-75.8952 -303.58075,-75.8952 0,0 -75.89519,75.8952 -303.58075,75.8952 z"
         id="path3930"
         inkscape:connector-curvature="0"
         sodipodi:nodetypes="ccccc" />
      <path
         sodipodi:nodetypes="ccccc"
         inkscape:connector-curvature="0"
         id="path3938"
         d="m -834.88056,3100.4269 c 0,531.2663 284.60696,569.2139 284.60696,569.2139 0,0 284.60695,-37.9476 284.60695,-569.2139 -227.68556,0 -284.60695,-75.8952 -284.60695,-75.8952 0,0 -56.92139,75.8952 -284.60696,75.8952 z"
         style="fill:#ffffff;fill-opacity:1;stroke:none" />
      <path
         style="fill:url(#linearGradient3962);fill-opacity:1;stroke:none"
         d="m -815.90676,3119.4007 c 0,493.3188 265.63316,531.2663 265.63316,531.2663 0,0 265.63316,-37.9475 265.63316,-531.2663 -227.68557,0 -265.63316,-75.8952 -265.63316,-75.8952 0,0 -37.94759,75.8952 -265.63316,75.8952 z"
         id="path3940"
         inkscape:connector-curvature="0"
         sodipodi:nodetypes="ccccc" />
      <path
         inkscape:connector-curvature="0"
         id="path3951"
         d="m -411.99978,3292.9796 c 6.24504,-41.745 -25.53911,-64.1865 -69.00011,-79.1572 l 14.09791,-56.5491 -34.4215,-8.5784 -13.72565,55.0589 c -9.04898,-2.2549 -18.34348,-4.3822 -27.57879,-6.4902 l 13.82355,-55.4217 -34.40192,-8.5788 -14.10793,56.5298 c -7.49025,-1.7058 -14.8432,-3.3922 -21.9805,-5.1666 l 0.0391,-0.1746 -47.47081,-11.8529 -9.15691,36.7648 c 0,0 25.53934,5.853 25.0001,6.2158 13.94127,3.4802 16.46087,12.706 16.03931,20.0196 l -16.05889,64.4218 c 0.9608,0.2466 2.2059,0.598 3.57842,1.1471 -1.14704,-0.2846 -2.37256,-0.598 -3.63724,-0.902 l -22.50994,90.2455 c -1.70589,4.2353 -6.02942,10.5885 -15.77459,8.1765 0.34305,0.5002 -25.01972,-6.245 -25.01972,-6.245 l -17.08833,39.4021 44.79436,11.1669 c 8.33337,2.0882 16.50007,4.2744 24.53935,6.3334 l -14.24519,57.196 34.38253,8.5785 14.10789,-56.5885 c 9.39222,2.5493 18.50993,4.9021 27.43152,7.1178 l -14.0589,56.3236 34.42173,8.5784 14.24549,-57.0882 c 58.6962,11.1079 102.83381,6.6274 121.41219,-46.4611 14.97071,-42.7453 -0.74529,-67.4022 -31.6278,-83.4806 22.4904,-5.1863 39.43172,-19.9805 43.95128,-50.5397 z m -78.64752,110.2848 c -10.63709,42.7453 -82.60808,19.6375 -105.94153,13.8433 l 18.90204,-75.7749 c 23.33348,5.8238 98.15737,17.353 87.03949,61.9316 z m 10.64733,-110.9022 c -9.70585,38.8826 -69.60841,19.1275 -89.0397,14.2842 l 17.13732,-68.7257 c 19.43148,4.8432 82.0101,13.8823 71.90238,54.4415 z"
         style="fill:#ffffff" />
    </g>
    <g
       style="font-size:177.83982849px;font-style:oblique;font-variant:normal;font-weight:bold;font-stretch:normal;line-height:125%;letter-spacing:0px;word-spacing:0px;fill:url(#linearGradient3950);fill-opacity:1;stroke:none;font-family:Tw Cen MT;-inkscape-font-specification:Tw Cen MT Bold Oblique"
       id="text3922">
      <path
         d="m 257.83201,123.893 21.53529,0 10.68081,68.86083 27.17962,-68.86083 13.02538,0 10.85448,69.38185 27.00595,-69.38185 22.751,0 -44.8073,114.01548 -17.45401,0 -9.98612,-65.12689 -25.52974,65.12689 -17.80135,0 z"
         style="font-family:Tw Cen MT;-inkscape-font-specification:Tw Cen MT Bold Oblique"
         id="path3008" />
      <path
         d="m 388.50839,137.1948 20.71035,0 -14.88077,100.71368 -20.78706,0 z"
         style="font-size:157.09185791px;font-family:Tw Cen MT;-inkscape-font-specification:Tw Cen MT Bold Oblique"
         id="path3010" />
      <path
         d="m 413.05977,137.1948 72.25612,0 -53.23327,82.6113 42.8781,0 -2.83809,18.10238 -74.09704,0 53.69351,-83.07153 -41.19059,0 z"
         style="font-size:157.09185791px;font-family:Tw Cen MT;-inkscape-font-specification:Tw Cen MT Bold Oblique"
         id="path3012" />
      <path
         d="m 555.76583,135.96319 -12.67803,16.58564 c -4.34186,-3.06811 -7.94554,-5.38373 -10.81107,-6.94686 -2.86563,-1.56296 -5.71674,-2.34448 -8.55333,-2.34457 -4.34183,9e-5 -7.88763,1.25921 -10.63739,3.77736 -2.74984,2.51832 -4.12474,5.71678 -4.12471,9.59536 -3e-5,3.41562 1.49066,6.39698 4.47205,8.94409 2.98133,2.54726 8.09017,5.38389 15.32653,8.50992 5.789,3.64716 9.7545,6.44038 11.89651,8.37966 2.14189,1.93938 4.15358,4.83391 6.03509,8.68358 1.88138,3.84977 2.8221,8.0613 2.82217,12.63462 -7e-5,9.84142 -3.69059,18.22107 -11.07157,25.13898 -7.3811,6.91792 -16.31071,10.37688 -26.78886,10.37688 -12.56228,0 -24.66139,-4.92069 -36.29739,-14.76209 l 13.37272,-16.49882 c 3.0103,2.08409 6.45478,4.38524 10.33347,6.90345 3.87864,2.51826 7.72836,3.77738 11.54917,3.77736 4.16808,2e-5 7.72835,-1.37488 10.68081,-4.1247 2.95237,-2.74977 4.42858,-6.06401 4.42862,-9.9427 -4e-5,-3.53129 -1.46178,-6.62843 -4.38521,-9.29144 -2.92351,-2.66292 -7.30872,-5.2101 -13.15563,-7.64156 -5.84697,-2.43135 -10.00061,-4.5733 -12.46094,-6.42585 -2.46037,-1.85244 -4.92071,-4.79038 -7.38105,-8.81384 -2.46036,-4.02332 -3.69053,-9.01638 -3.69052,-14.97918 -10e-6,-10.13076 3.69051,-18.52489 11.07157,-25.1824 7.38102,-6.6573 16.71587,-9.98601 28.00456,-9.98612 11.3465,1.1e-4 22.02729,4.54452 32.04243,13.63323 z"
         style="font-family:Tw Cen MT;-inkscape-font-specification:Tw Cen MT Bold Oblique"
         id="path3014" />
      <path
         d="m 563.71854,137.1948 54.53726,0 -2.68468,17.79556 -33.7502,0 -3.45173,22.24446 32.1394,0 -2.83808,17.94897 -31.98599,0 -3.60514,24.85242 32.67634,0 -2.68468,17.87227 -53.6168,0 z"
         style="font-size:157.09185791px;font-family:Tw Cen MT;-inkscape-font-specification:Tw Cen MT Bold Oblique"
         id="path3016" />
      <path
         d="m 697.36906,144.09825 -2.68468,18.4092 c -6.69898,-5.57381 -14.49732,-8.36076 -23.39502,-8.36084 -10.02285,8e-5 -18.79278,3.68192 -26.30982,11.04552 -7.51712,7.36375 -11.27566,15.90356 -11.27564,25.61947 -2e-5,8.69328 2.69743,15.76291 8.09238,21.20894 5.39488,5.44607 12.38781,8.1691 20.97882,8.16908 7.87498,2e-5 16.36366,-2.48011 25.46606,-7.44039 l -2.99149,20.48024 c -8.28421,4.29548 -16.72176,6.44322 -25.31265,6.44322 -14.93195,0 -26.61667,-4.70457 -35.05419,-14.11372 -8.43756,-9.40912 -12.65634,-20.58248 -12.65633,-33.52009 -10e-6,-17.18186 5.65059,-30.87369 16.95181,-41.07553 11.30117,-10.20167 23.7018,-15.30255 37.20193,-15.30265 12.32386,1e-4 22.65346,2.81262 30.98882,8.43755 z"
         style="font-size:157.09185791px;font-family:Tw Cen MT;-inkscape-font-specification:Tw Cen MT Bold Oblique"
         id="path3018" />
    </g>
    <g
       style="font-size:42.68156052px;font-style:normal;font-variant:normal;font-weight:normal;font-stretch:normal;text-align:start;line-height:125%;letter-spacing:0px;word-spacing:0px;text-anchor:start;fill:#666666;fill-opacity:1;stroke:none;font-family:Liberation Sans Narrow;-inkscape-font-specification:Liberation Sans Narrow"
       id="text3934">
      <path
         d="m 290.43494,267.65966 c -2e-5,1.48664 -0.23622,2.75444 -0.70858,3.80341 -0.47241,1.04898 -1.115,1.90344 -1.92776,2.56339 -0.8128,0.65996 -1.7541,1.14277 -2.8239,1.44843 -1.06983,0.30566 -2.19523,0.45849 -3.37618,0.45849 l -9.77424,0 0,-29.36441 8.75305,0 c 1.33379,3e-5 2.5217,0.13549 3.56374,0.40639 1.04202,0.27096 1.92774,0.69819 2.65718,1.2817 0.7294,0.58356 1.28515,1.3234 1.66725,2.21952 0.38206,0.89617 0.5731,1.96946 0.57312,3.21987 -2e-5,0.81976 -0.0938,1.59086 -0.28135,2.31331 -0.18759,0.72249 -0.47241,1.37897 -0.85447,1.96944 -0.38209,0.5905 -0.86143,1.09762 -1.438,1.52136 -0.57661,0.42378 -1.24698,0.73986 -2.01112,0.94825 0.97255,0.13895 1.83396,0.40988 2.58424,0.81278 0.75024,0.40294 1.37546,0.917 1.87565,1.54221 0.50016,0.62523 0.87876,1.35118 1.13582,2.17784 0.25701,0.82669 0.38553,1.71936 0.38555,2.67802 z m -4.6683,-13.48387 c -2e-5,-1.58386 -0.44461,-2.7162 -1.3338,-3.39702 -0.88921,-0.68077 -2.17438,-1.02116 -3.85551,-1.02119 l -5.50192,0 0,9.29491 5.50192,0 c 0.95866,2e-5 1.76797,-0.11461 2.42793,-0.34387 0.65994,-0.22923 1.19485,-0.55573 1.60473,-0.97951 0.40985,-0.42374 0.70509,-0.93433 0.88572,-1.53178 0.18061,-0.59741 0.27091,-1.27126 0.27093,-2.02154 z m 1.37548,13.17126 c -2e-5,-0.93087 -0.13895,-1.72281 -0.41681,-2.37583 -0.27789,-0.65299 -0.67734,-1.1879 -1.19834,-1.60473 -0.52103,-0.41679 -1.14972,-0.72246 -1.88607,-0.91698 -0.73638,-0.1945 -1.56306,-0.29176 -2.48003,-0.29177 l -6.08546,0 0,10.58703 6.35639,0 c 0.83361,0 1.59776,-0.0834 2.29246,-0.25009 0.69467,-0.16672 1.29558,-0.45849 1.80271,-0.87531 0.50711,-0.4168 0.90308,-0.97255 1.18792,-1.66724 0.2848,-0.69468 0.42721,-1.56304 0.42723,-2.60508 z"
         style="font-family:Liberation Sans Narrow;-inkscape-font-specification:Liberation Sans Narrow"
         id="path3021" />
      <path
         d="m 294.6239,248.59051 0,-3.58459 3.08441,0 0,3.58459 z m 0,27.34287 0,-22.54954 3.08441,0 0,22.54954 z"
         style="font-family:Liberation Sans Narrow;-inkscape-font-specification:Liberation Sans Narrow"
         id="path3023" />
      <path
         d="m 309.52493,275.76666 c -0.47239,0.15283 -0.95173,0.2744 -1.438,0.36471 -0.48629,0.0903 -1.04898,0.13546 -1.68809,0.13546 -2.45919,0 -3.68879,-1.70198 -3.68879,-5.10595 l 0,-15.04692 -2.14658,0 0,-2.73012 2.27163,0 0.89614,-5.04342 2.06322,0 0,5.04342 3.41786,0 0,2.73012 -3.41786,0 0,14.23414 c 0,1.08371 0.14588,1.8444 0.43766,2.28204 0.29176,0.43766 0.79193,0.65649 1.50052,0.65648 0.29176,10e-6 0.58005,-0.0278 0.86488,-0.0834 0.28482,-0.0556 0.59395,-0.12504 0.92741,-0.20841 z"
         style="font-family:Liberation Sans Narrow;-inkscape-font-specification:Liberation Sans Narrow"
         id="path3025" />
      <path
         d="m 314.50584,264.55441 c -10e-6,1.29213 0.0764,2.48004 0.22924,3.56374 0.15283,1.08372 0.40986,2.01807 0.77111,2.80306 0.36123,0.785 0.84056,1.39286 1.438,1.82356 0.59742,0.43071 1.34074,0.64606 2.22994,0.64606 1.0976,0 2.01111,-0.36124 2.74054,-1.08372 0.72941,-0.72247 1.17748,-1.83396 1.34422,-3.33449 l 3.12609,0.25009 c -0.0973,0.93088 -0.31957,1.82703 -0.6669,2.68843 -0.34736,0.86142 -0.8128,1.61863 -1.39632,2.27163 -0.58355,0.65301 -1.29908,1.17749 -2.14658,1.57346 -0.84753,0.39598 -1.82009,0.59396 -2.91768,0.59396 -1.44496,0 -2.67803,-0.29871 -3.69921,-0.89614 -1.0212,-0.59743 -1.84787,-1.42064 -2.48003,-2.46962 -0.63217,-1.04897 -1.09066,-2.28551 -1.37548,-3.70962 -0.28483,-1.4241 -0.42724,-2.96978 -0.42724,-4.63704 0,-1.5144 0.1042,-2.85167 0.31261,-4.01181 0.20841,-1.16012 0.4967,-2.17436 0.86489,-3.04273 0.36818,-0.86834 0.80236,-1.59776 1.30254,-2.18827 0.50017,-0.59046 1.04549,-1.06285 1.63598,-1.41716 0.59048,-0.35427 1.20875,-0.6113 1.85482,-0.7711 0.64605,-0.15976 1.30253,-0.23964 1.96943,-0.23967 1.04202,3e-5 1.96596,0.1737 2.7718,0.52102 0.80583,0.34736 1.50399,0.82322 2.09449,1.42758 0.59046,0.6044 1.06632,1.31645 1.42758,2.13616 0.36122,0.81975 0.61825,1.702 0.7711,2.64676 l -3.16777,0.29177 c -0.15285,-1.25042 -0.55576,-2.24382 -1.20876,-2.98021 -0.65301,-0.73635 -1.57695,-1.10453 -2.7718,-1.10455 -0.87531,2e-5 -1.60821,0.17716 -2.19868,0.53143 -0.59049,0.35431 -1.06635,0.88922 -1.42758,1.60473 -0.36125,0.71554 -0.61828,1.61516 -0.77111,2.69886 -0.15283,1.08372 -0.22925,2.355 -0.22924,3.81383 z"
         style="font-family:Liberation Sans Narrow;-inkscape-font-specification:Liberation Sans Narrow"
         id="path3027" />
      <path
         d="m 345.28741,264.63777 c -2e-5,3.94583 -0.71207,6.88435 -2.13616,8.81558 -1.42412,1.93123 -3.49082,2.89684 -6.20008,2.89684 -1.29213,0 -2.44183,-0.23619 -3.44912,-0.70858 -1.0073,-0.47238 -1.86177,-1.19486 -2.5634,-2.16742 -0.70163,-0.97256 -1.23654,-2.19173 -1.60472,-3.65753 -0.36819,-1.46578 -0.55228,-3.19207 -0.55228,-5.17889 0,-7.78047 2.7579,-11.67071 8.27372,-11.67074 1.43104,3e-5 2.67106,0.24317 3.72005,0.72942 1.04896,0.48631 1.9069,1.21573 2.57381,2.18827 0.66689,0.97258 1.15664,2.18828 1.46927,3.6471 0.31259,1.45886 0.46889,3.16084 0.46891,5.10595 z m -3.23029,0 c -2e-5,-1.7506 -0.10769,-3.19554 -0.32303,-4.33484 -0.21537,-1.13927 -0.5384,-2.04931 -0.96909,-2.73012 -0.43072,-0.68078 -0.95521,-1.15664 -1.57347,-1.42759 -0.61828,-0.2709 -1.30949,-0.40637 -2.07364,-0.40639 -0.79195,2e-5 -1.504,0.14243 -2.13616,0.42724 -0.63217,0.28484 -1.17055,0.77112 -1.61515,1.45884 -0.4446,0.68776 -0.78152,1.60127 -1.01077,2.74054 -0.22925,1.1393 -0.34387,2.56341 -0.34387,4.27232 0,1.75062 0.12504,3.19904 0.37514,4.34527 0.25008,1.14624 0.59395,2.05975 1.03161,2.74054 0.43764,0.68079 0.95518,1.16013 1.55262,1.438 0.59742,0.27788 1.25043,0.41681 1.95902,0.41681 0.79193,0 1.50398,-0.13546 2.13616,-0.40639 0.63215,-0.27092 1.17053,-0.74678 1.61515,-1.42758 0.44458,-0.68079 0.78498,-1.59778 1.02119,-2.75096 0.23618,-1.15317 0.35427,-2.60507 0.35429,-4.35569 z"
         style="font-family:Liberation Sans Narrow;-inkscape-font-specification:Liberation Sans Narrow"
         id="path3029" />
      <path
         d="m 349.05956,248.59051 0,-3.58459 3.08441,0 0,3.58459 z m 0,27.34287 0,-22.54954 3.08441,0 0,22.54954 z"
         style="font-family:Liberation Sans Narrow;-inkscape-font-specification:Liberation Sans Narrow"
         id="path3031" />
      <path
         d="m 368.58721,275.93338 0,-14.29666 c -2e-5,-1.09759 -0.066,-2.01457 -0.19799,-2.75096 -0.132,-0.73635 -0.34735,-1.3303 -0.64606,-1.78187 -0.29872,-0.45152 -0.69122,-0.77108 -1.17749,-0.95867 -0.48629,-0.18754 -1.08372,-0.28132 -1.79229,-0.28134 -0.72249,2e-5 -1.37896,0.15632 -1.96944,0.46891 -0.59049,0.31263 -1.09414,0.76417 -1.51094,1.35464 -0.41682,0.5905 -0.73985,1.31992 -0.96909,2.18826 -0.22925,0.86838 -0.34388,1.86525 -0.34387,2.99063 l 0,13.06706 -3.08441,0 0,-17.73536 c 0,2e-5 0,-0.4932 0,-1.47968 0,-0.52794 -0.007,-1.02464 -0.0208,-1.4901 -0.0139,-0.46542 -0.0278,-0.86487 -0.0417,-1.19834 -0.0139,-0.33342 -0.0208,-0.54878 -0.0208,-0.64606 l 2.89684,0 c 0.0139,0.0695 0.0243,0.25706 0.0313,0.5627 0.007,0.30568 0.0208,0.6565 0.0417,1.05245 0.0208,0.39599 0.0347,0.79891 0.0417,1.20876 0.007,0.40988 0.0104,0.75375 0.0104,1.03161 l 0.0625,0 c 0.29176,-0.65299 0.61479,-1.24347 0.96908,-1.77145 0.35429,-0.52795 0.76415,-0.97602 1.2296,-1.34422 0.46543,-0.36817 1.00034,-0.65299 1.60473,-0.85447 0.60436,-0.20143 1.30947,-0.30216 2.11532,-0.30219 1.02812,3e-5 1.91037,0.15286 2.64676,0.4585 0.73635,0.30568 1.3442,0.77807 1.82355,1.41716 0.47932,0.63913 0.83013,1.46233 1.05245,2.46961 0.22228,1.00731 0.33343,2.20565 0.33345,3.595 l 0,15.02608 z"
         style="font-family:Liberation Sans Narrow;-inkscape-font-specification:Liberation Sans Narrow"
         id="path3033" />
      <path
         d="m 405.47508,267.82638 c -2e-5,1.23655 -0.19801,2.37584 -0.59396,3.41786 -0.39599,1.04204 -1.00384,1.94166 -1.82355,2.69886 -0.81975,0.75721 -1.85136,1.3477 -3.09483,1.77145 -1.24351,0.42376 -2.71971,0.63564 -4.42863,0.63564 -3.00106,0 -5.33868,-0.63911 -7.01286,-1.91733 -1.6742,-1.27822 -2.74055,-3.12609 -3.19904,-5.5436 l 3.16778,-0.77111 c 0.15282,0.76417 0.39596,1.45885 0.72942,2.08406 0.33344,0.62523 0.78151,1.16361 1.34422,1.61515 0.56268,0.45155 1.26084,0.80237 2.09448,1.05245 0.83361,0.25009 1.82701,0.37513 2.9802,0.37513 0.97255,0 1.86522,-0.10072 2.67802,-0.30219 0.81277,-0.20145 1.50746,-0.51059 2.08406,-0.9274 0.57657,-0.41681 1.02812,-0.95519 1.35464,-1.61515 0.32649,-0.65995 0.48974,-1.44842 0.48975,-2.36541 -10e-6,-0.95866 -0.18063,-1.73671 -0.54185,-2.33415 -0.36126,-0.59742 -0.8649,-1.09064 -1.51094,-1.47968 -0.64608,-0.38901 -1.42065,-0.71552 -2.32373,-0.97951 l -2.98021,-0.85446 c -0.66691,-0.18061 -1.34075,-0.37859 -2.02154,-0.59396 -0.6808,-0.21534 -1.3338,-0.47237 -1.95901,-0.7711 -0.62523,-0.2987 -1.20877,-0.64952 -1.75062,-1.05245 -0.54186,-0.40291 -1.01424,-0.88571 -1.41716,-1.44843 -0.40292,-0.56267 -0.719,-1.21568 -0.94824,-1.95901 -0.22925,-0.7433 -0.34388,-1.60124 -0.34387,-2.57382 -10e-6,-1.38935 0.23271,-2.58073 0.69816,-3.57416 0.46543,-0.99338 1.10802,-1.80963 1.92775,-2.44877 0.81973,-0.63909 1.78881,-1.10453 2.90727,-1.39632 1.11843,-0.29174 2.32371,-0.43763 3.61584,-0.43766 1.48662,3e-5 2.76137,0.14244 3.82425,0.42724 1.06286,0.28485 1.959,0.71208 2.68844,1.28169 0.7294,0.56967 1.31294,1.27478 1.75061,2.11533 0.43763,0.84059 0.78845,1.81663 1.05245,2.9281 l -3.20945,0.68774 c -0.15285,-0.70856 -0.3821,-1.34072 -0.68774,-1.89649 -0.30568,-0.55573 -0.70512,-1.02117 -1.19834,-1.39633 -0.49324,-0.3751 -1.09067,-0.65992 -1.79229,-0.85446 -0.70165,-0.19449 -1.52485,-0.29174 -2.46961,-0.29177 -1.11151,3e-5 -2.04586,0.1216 -2.80306,0.36471 -0.75722,0.24317 -1.36507,0.57314 -1.82355,0.98993 -0.4585,0.41684 -0.78848,0.90659 -0.98993,1.46926 -0.20147,0.56272 -0.3022,1.17057 -0.30219,1.82356 -10e-6,0.87532 0.18061,1.59432 0.54185,2.157 0.36123,0.56271 0.84751,1.03163 1.45885,1.40674 0.61131,0.37515 1.32337,0.68776 2.13616,0.93783 0.81277,0.2501 1.67071,0.50019 2.57381,0.75026 -10e-6,2e-5 0.73636,0.21537 2.20911,0.64606 0.73635,0.20842 1.44146,0.46198 2.11532,0.76068 0.67383,0.29873 1.30252,0.64955 1.88607,1.05245 0.58352,0.40293 1.09412,0.89616 1.53179,1.47968 0.43763,0.58355 0.77803,1.27129 1.02119,2.06322 0.24312,0.79196 0.36469,1.72284 0.36471,2.79264 z"
         style="font-family:Liberation Sans Narrow;-inkscape-font-specification:Liberation Sans Narrow"
         id="path3035" />
      <path
         d="m 411.6439,265.45056 c -10e-6,1.18097 0.12504,2.26816 0.37513,3.26155 0.25008,0.99341 0.58353,1.84787 1.00035,2.56339 0.4168,0.71554 0.94824,1.27129 1.5943,1.66725 0.64605,0.39598 1.42757,0.59396 2.34457,0.59396 1.33379,0 2.4036,-0.3265 3.20945,-0.97951 0.80583,-0.653 1.34768,-1.47968 1.62557,-2.48003 l 2.70928,0.93783 c -0.19453,0.62522 -0.46546,1.25391 -0.81278,1.88607 -0.34736,0.63217 -0.8128,1.20181 -1.39632,1.70893 -0.58356,0.50712 -1.3095,0.92394 -2.17785,1.25044 -0.86837,0.3265 -1.92082,0.48975 -3.15735,0.48975 -2.73707,0 -4.82113,-0.9934 -6.25218,-2.9802 -1.43106,-1.9868 -2.14659,-4.93922 -2.14658,-8.85726 -10e-6,-2.11184 0.21882,-3.90065 0.65648,-5.36646 0.43765,-1.46577 1.0316,-2.65716 1.78187,-3.57416 0.75025,-0.91697 1.62556,-1.58039 2.62591,-1.99028 1.00035,-0.40984 2.07016,-0.61477 3.20946,-0.6148 1.55608,3e-5 2.85515,0.30569 3.89719,0.91699 2.01458,1.18099 3.29975,3.29283 3.85551,6.33554 0.26397,1.45886 0.39596,3.0358 0.39597,4.73082 l 0,0.50018 z m 10.25357,-2.87601 c -10e-6,-2.51475 -0.46892,-4.28272 -1.40674,-5.30393 -0.93784,-1.02117 -2.1709,-1.53177 -3.6992,-1.53179 -1.08372,2e-5 -2.13965,0.45852 -3.16778,1.37548 -1.25044,1.06984 -1.91039,2.88992 -1.97985,5.46024 z"
         style="font-family:Liberation Sans Narrow;-inkscape-font-specification:Liberation Sans Narrow"
         id="path3037" />
      <path
         d="m 431.21323,264.55441 c -1e-5,1.29213 0.0764,2.48004 0.22924,3.56374 0.15283,1.08372 0.40986,2.01807 0.77111,2.80306 0.36123,0.785 0.84056,1.39286 1.438,1.82356 0.59742,0.43071 1.34074,0.64606 2.22994,0.64606 1.0976,0 2.01111,-0.36124 2.74054,-1.08372 0.72941,-0.72247 1.17748,-1.83396 1.34422,-3.33449 l 3.12609,0.25009 c -0.0973,0.93088 -0.31957,1.82703 -0.6669,2.68843 -0.34736,0.86142 -0.8128,1.61863 -1.39632,2.27163 -0.58355,0.65301 -1.29908,1.17749 -2.14658,1.57346 -0.84753,0.39598 -1.82009,0.59396 -2.91768,0.59396 -1.44496,0 -2.67803,-0.29871 -3.69921,-0.89614 -1.0212,-0.59743 -1.84787,-1.42064 -2.48003,-2.46962 -0.63217,-1.04897 -1.09067,-2.28551 -1.37548,-3.70962 -0.28483,-1.4241 -0.42724,-2.96978 -0.42724,-4.63704 0,-1.5144 0.1042,-2.85167 0.31261,-4.01181 0.20841,-1.16012 0.4967,-2.17436 0.86489,-3.04273 0.36818,-0.86834 0.80236,-1.59776 1.30254,-2.18827 0.50017,-0.59046 1.04549,-1.06285 1.63598,-1.41716 0.59048,-0.35427 1.20875,-0.6113 1.85482,-0.7711 0.64605,-0.15976 1.30253,-0.23964 1.96943,-0.23967 1.04202,3e-5 1.96596,0.1737 2.7718,0.52102 0.80583,0.34736 1.50399,0.82322 2.09449,1.42758 0.59046,0.6044 1.06632,1.31645 1.42758,2.13616 0.36122,0.81975 0.61825,1.702 0.7711,2.64676 l -3.16777,0.29177 c -0.15285,-1.25042 -0.55577,-2.24382 -1.20876,-2.98021 -0.65302,-0.73635 -1.57695,-1.10453 -2.7718,-1.10455 -0.87531,2e-5 -1.60821,0.17716 -2.19868,0.53143 -0.59049,0.35431 -1.06635,0.88922 -1.42758,1.60473 -0.36125,0.71554 -0.61828,1.61516 -0.77111,2.69886 -0.15283,1.08372 -0.22925,2.355 -0.22924,3.81383 z"
         style="font-family:Liberation Sans Narrow;-inkscape-font-specification:Liberation Sans Narrow"
         id="path3039" />
      <path
         d="m 449.3654,253.38384 0,14.29666 c 0,1.09761 0.066,2.0146 0.19799,2.75096 0.13199,0.73637 0.34734,1.33033 0.64606,1.78187 0.29871,0.45155 0.69121,0.77111 1.17749,0.95867 0.48628,0.18757 1.08371,0.28135 1.7923,0.28135 0.72246,0 1.37894,-0.1563 1.96943,-0.46892 0.59047,-0.3126 1.09412,-0.76415 1.51095,-1.35463 0.4168,-0.59048 0.73982,-1.3199 0.96908,-2.18827 0.22924,-0.86835 0.34386,-1.86522 0.34387,-2.99063 l 0,-13.06706 3.08441,0 0,17.73536 c -1e-5,1e-5 -1e-5,0.49323 0,1.47968 -1e-5,0.52797 0.007,1.02467 0.0208,1.49011 0.0139,0.46544 0.0278,0.86488 0.0417,1.19833 0.0139,0.33345 0.0208,0.5488 0.0208,0.64606 l -2.89685,0 c -0.0139,-0.0695 -0.0243,-0.25703 -0.0313,-0.5627 -0.007,-0.30566 -0.0208,-0.65647 -0.0417,-1.05245 -0.0208,-0.39597 -0.0348,-0.79888 -0.0417,-1.20875 -0.007,-0.40986 -0.0104,-0.75373 -0.0104,-1.03161 l -0.0625,0 c -0.29179,0.65301 -0.61481,1.24349 -0.96909,1.77145 -0.3543,0.52796 -0.76417,0.97604 -1.2296,1.34422 -0.46545,0.36818 -1.00036,0.653 -1.60472,0.85446 -0.60439,0.20146 -1.3095,0.30219 -2.11532,0.30219 -1.02815,0 -1.9104,-0.15283 -2.64676,-0.45849 -0.73637,-0.30566 -1.34423,-0.77805 -1.82355,-1.41716 -0.47934,-0.63911 -0.83016,-1.45884 -1.05246,-2.45919 -0.2223,-1.00035 -0.33345,-2.20215 -0.33345,-3.60543 l 0,-15.02608 z"
         style="font-family:Liberation Sans Narrow;-inkscape-font-specification:Liberation Sans Narrow"
         id="path3041" />
      <path
         d="m 465.85031,275.93338 0,-17.2977 c 0,1e-5 0,-0.48627 0,-1.45885 0,-0.48626 -0.007,-0.95864 -0.0208,-1.41716 -0.0139,-0.45847 -0.0278,-0.88917 -0.0417,-1.29211 -0.0139,-0.4029 -0.0278,-0.76414 -0.0417,-1.08372 l 2.91768,0 c 0.0139,0.31958 0.0278,0.68429 0.0417,1.09414 0.0139,0.40988 0.0313,0.83017 0.0521,1.26085 0.0208,0.43073 0.0312,0.84059 0.0313,1.2296 l 0,1.02119 0.0834,0 c 0.22229,-0.86139 0.45154,-1.60818 0.68774,-2.24037 0.23619,-0.63214 0.52101,-1.15316 0.85446,-1.56304 0.33345,-0.40985 0.72942,-0.71551 1.18792,-0.91699 0.45848,-0.20143 1.00728,-0.30216 1.64641,-0.30219 0.25007,3e-5 0.48974,0.0243 0.719,0.0729 0.22923,0.0487 0.40638,0.0938 0.53143,0.13547 l 0,3.4387 c -0.20841,-0.0695 -0.44808,-0.12155 -0.719,-0.15631 -0.27094,-0.0347 -0.58007,-0.0521 -0.92741,-0.0521 -0.70859,2e-5 -1.30949,0.19453 -1.80271,0.58354 -0.49323,0.38904 -0.89615,0.92742 -1.20875,1.61515 -0.31262,0.68775 -0.54187,1.50748 -0.68774,2.45919 -0.14589,0.95173 -0.21884,1.99029 -0.21883,3.11567 l 0,11.7541 z"
         style="font-family:Liberation Sans Narrow;-inkscape-font-specification:Liberation Sans Narrow"
         id="path3043" />
      <path
         d="m 477.43769,248.59051 0,-3.58459 3.08441,0 0,3.58459 z m 0,27.34287 0,-22.54954 3.08441,0 0,22.54954 z"
         style="font-family:Liberation Sans Narrow;-inkscape-font-specification:Liberation Sans Narrow"
         id="path3045" />
      <path
         d="m 492.33872,275.76666 c -0.47239,0.15283 -0.95173,0.2744 -1.438,0.36471 -0.48629,0.0903 -1.04898,0.13546 -1.68809,0.13546 -2.45919,0 -3.68879,-1.70198 -3.68879,-5.10595 l 0,-15.04692 -2.14658,0 0,-2.73012 2.27163,0 0.89614,-5.04342 2.06322,0 0,5.04342 3.41786,0 0,2.73012 -3.41786,0 0,14.23414 c 0,1.08371 0.14588,1.8444 0.43766,2.28204 0.29176,0.43766 0.79193,0.65649 1.50052,0.65648 0.29176,10e-6 0.58006,-0.0278 0.86489,-0.0834 0.28481,-0.0556 0.59394,-0.12504 0.9274,-0.20841 z"
         style="font-family:Liberation Sans Narrow;-inkscape-font-specification:Liberation Sans Narrow"
         id="path3047" />
      <path
         d="m 502.92575,275.93338 c -0.43072,1.36159 -0.87184,2.58771 -1.32338,3.67837 -0.45155,1.09065 -0.9552,2.02153 -1.51094,2.79264 -0.55576,0.77109 -1.17403,1.36158 -1.85482,1.77145 -0.68079,0.40986 -1.46579,0.61479 -2.35499,0.6148 -0.38902,-10e-6 -0.75026,-0.0139 -1.08371,-0.0417 -0.33345,-0.0278 -0.68079,-0.0903 -1.04203,-0.18757 l 0,-2.81348 c 0.2223,0.0417 0.46891,0.0729 0.73984,0.0938 0.27093,0.0208 0.50365,0.0313 0.69816,0.0313 0.90309,0 1.74019,-0.40987 2.5113,-1.22959 0.77109,-0.81974 1.44841,-2.12575 2.03196,-3.91804 l 0.29177,-0.89614 -7.3359,-22.44534 3.29282,0 3.89719,12.46269 c -10e-6,1e-5 0.14588,0.50018 0.43765,1.50052 l 0.52102,1.87566 c 0.18061,0.62522 0.33691,1.18792 0.46891,1.68808 0.13198,0.50018 0.21187,0.81279 0.23967,0.93783 0.0278,-0.15283 0.10419,-0.45849 0.22925,-0.91699 l 0.45849,-1.50052 0.50017,-1.68809 c 0.18061,-0.56963 0.3265,-1.06286 0.43766,-1.47968 l 3.62626,-12.8795 3.25114,0 z"
         style="font-family:Liberation Sans Narrow;-inkscape-font-specification:Liberation Sans Narrow"
         id="path3049" />
      <path
         d="m 541.60592,267.82638 c -2e-5,1.23655 -0.198,2.37584 -0.59395,3.41786 -0.396,1.04204 -1.00385,1.94166 -1.82356,2.69886 -0.81975,0.75721 -1.85136,1.3477 -3.09483,1.77145 -1.2435,0.42376 -2.71971,0.63564 -4.42863,0.63564 -3.00105,0 -5.33867,-0.63911 -7.01286,-1.91733 -1.6742,-1.27822 -2.74054,-3.12609 -3.19903,-5.5436 l 3.16777,-0.77111 c 0.15283,0.76417 0.39597,1.45885 0.72942,2.08406 0.33344,0.62523 0.78152,1.16361 1.34422,1.61515 0.56269,0.45155 1.26085,0.80237 2.09448,1.05245 0.83361,0.25009 1.82702,0.37513 2.98021,0.37513 0.97255,0 1.86522,-0.10072 2.67801,-0.30219 0.81277,-0.20145 1.50746,-0.51059 2.08407,-0.9274 0.57657,-0.41681 1.02811,-0.95519 1.35463,-1.61515 0.32649,-0.65995 0.48974,-1.44842 0.48976,-2.36541 -2e-5,-0.95866 -0.18064,-1.73671 -0.54186,-2.33415 -0.36125,-0.59742 -0.8649,-1.09064 -1.51094,-1.47968 -0.64608,-0.38901 -1.42065,-0.71552 -2.32373,-0.97951 l -2.9802,-0.85446 c -0.66691,-0.18061 -1.34076,-0.37859 -2.02154,-0.59396 -0.68081,-0.21534 -1.33381,-0.47237 -1.95902,-0.7711 -0.62523,-0.2987 -1.20876,-0.64952 -1.75061,-1.05245 -0.54186,-0.40291 -1.01425,-0.88571 -1.41716,-1.44843 -0.40292,-0.56267 -0.71901,-1.21568 -0.94825,-1.95901 -0.22925,-0.7433 -0.34387,-1.60124 -0.34387,-2.57382 0,-1.38935 0.23272,-2.58073 0.69816,-3.57416 0.46544,-0.99338 1.10802,-1.80963 1.92776,-2.44877 0.81972,-0.63909 1.78881,-1.10453 2.90726,-1.39632 1.11844,-0.29174 2.32372,-0.43763 3.61585,-0.43766 1.48661,3e-5 2.76136,0.14244 3.82425,0.42724 1.06285,0.28485 1.959,0.71208 2.68844,1.28169 0.7294,0.56967 1.31293,1.27478 1.75061,2.11533 0.43763,0.84059 0.78844,1.81663 1.05245,2.9281 l -3.20946,0.68774 c -0.15285,-0.70856 -0.38209,-1.34072 -0.68774,-1.89649 -0.30568,-0.55573 -0.70512,-1.02117 -1.19833,-1.39633 -0.49324,-0.3751 -1.09067,-0.65992 -1.79229,-0.85446 -0.70165,-0.19449 -1.52485,-0.29174 -2.46962,-0.29177 -1.11151,3e-5 -2.04586,0.1216 -2.80306,0.36471 -0.75721,0.24317 -1.36506,0.57314 -1.82355,0.98993 -0.4585,0.41684 -0.78848,0.90659 -0.98993,1.46926 -0.20146,0.56272 -0.30219,1.17057 -0.30219,1.82356 0,0.87532 0.18062,1.59432 0.54186,2.157 0.36123,0.56271 0.84751,1.03163 1.45884,1.40674 0.61132,0.37515 1.32337,0.68776 2.13616,0.93783 0.81278,0.2501 1.67071,0.50019 2.57382,0.75026 -2e-5,2e-5 0.73635,0.21537 2.2091,0.64606 0.73635,0.20842 1.44146,0.46198 2.11532,0.76068 0.67383,0.29873 1.30252,0.64955 1.88608,1.05245 0.58352,0.40293 1.09411,0.89616 1.53178,1.47968 0.43763,0.58355 0.77803,1.27129 1.02119,2.06322 0.24312,0.79196 0.36469,1.72284 0.36471,2.79264 z"
         style="font-family:Liberation Sans Narrow;-inkscape-font-specification:Liberation Sans Narrow"
         id="path3051" />
      <path
         d="m 561.19608,264.55441 c -2e-5,1.70894 -0.11117,3.28588 -0.33345,4.73082 -0.22232,1.44495 -0.60093,2.68844 -1.13582,3.73047 -0.53492,1.04203 -1.23656,1.85828 -2.1049,2.44877 -0.86837,0.59048 -1.94166,0.88572 -3.21987,0.88572 -1.31992,0 -2.47657,-0.30566 -3.46996,-0.91698 -0.99341,-0.61133 -1.74715,-1.61168 -2.26121,-3.00105 l -0.1042,0 c 0.0139,0.0278 0.0243,0.15283 0.0313,0.37513 0.007,0.2223 0.0139,0.50018 0.0208,0.83362 0.007,0.33346 0.0139,0.70511 0.0208,1.11498 0.007,0.40986 0.0104,0.81625 0.0104,1.21917 l 0,8.81558 -3.08441,0 0,-26.80102 c 0,-0.54184 -0.003,-1.06285 -0.0104,-1.56305 -0.007,-0.50015 -0.0139,-0.95517 -0.0208,-1.36506 -0.007,-0.40984 -0.0174,-0.76066 -0.0313,-1.05245 -0.0139,-0.29174 -0.0278,-0.50015 -0.0417,-0.62522 l 2.9802,0 c 0.0139,0.0417 0.0278,0.18759 0.0417,0.43766 l 0.0625,0.89614 c 0.0139,0.36126 0.0278,0.74334 0.0417,1.14624 0.0139,0.40293 0.0208,0.78501 0.0208,1.14623 l 0.0625,0 c 0.27787,-0.72245 0.6009,-1.33725 0.96909,-1.84439 0.36818,-0.5071 0.78846,-0.92392 1.26086,-1.25044 0.47237,-0.32648 0.99339,-0.56267 1.56304,-0.70858 0.56963,-0.14586 1.21569,-0.2188 1.93818,-0.21883 1.27821,3e-5 2.3515,0.2779 3.21987,0.83363 0.86834,0.55577 1.56998,1.33729 2.1049,2.34457 0.53489,1.00731 0.9135,2.22301 1.13582,3.6471 0.22228,1.42412 0.33343,3.00454 0.33345,4.74124 z m -3.2303,0.0834 c -10e-6,-1.38936 -0.066,-2.6259 -0.19798,-3.70963 -0.13201,-1.08369 -0.3682,-2.00068 -0.70859,-2.75096 -0.34041,-0.75024 -0.78848,-1.31988 -1.34421,-1.70893 -0.55577,-0.389 -1.2574,-0.58351 -2.10491,-0.58353 -0.6808,2e-5 -1.32338,0.11811 -1.92775,0.35429 -0.60439,0.23621 -1.13235,0.68776 -1.58389,1.35464 -0.45155,0.66691 -0.80584,1.58737 -1.06287,2.76138 -0.25704,1.17403 -0.38556,2.69887 -0.38555,4.57451 -10e-6,1.59779 0.10767,2.94895 0.32303,4.0535 0.21535,1.10456 0.53143,1.99723 0.94825,2.67802 0.4168,0.68079 0.93087,1.17055 1.5422,1.46926 0.61132,0.29872 1.3199,0.44807 2.12574,0.44807 0.8614,0 1.56998,-0.20145 2.12575,-0.60438 0.55573,-0.40291 1.0038,-0.98645 1.34421,-1.75061 0.34039,-0.76415 0.57658,-1.6985 0.70859,-2.80306 0.13197,-1.10454 0.19797,-2.3654 0.19798,-3.78257 z"
         style="font-family:Liberation Sans Narrow;-inkscape-font-specification:Liberation Sans Narrow"
         id="path3053" />
      <path
         d="m 567.19819,265.45056 c -10e-6,1.18097 0.12504,2.26816 0.37513,3.26155 0.25008,0.99341 0.58353,1.84787 1.00035,2.56339 0.4168,0.71554 0.94824,1.27129 1.5943,1.66725 0.64605,0.39598 1.42758,0.59396 2.34457,0.59396 1.33379,0 2.40361,-0.3265 3.20945,-0.97951 0.80583,-0.653 1.34768,-1.47968 1.62557,-2.48003 l 2.70928,0.93783 c -0.19453,0.62522 -0.46546,1.25391 -0.81278,1.88607 -0.34736,0.63217 -0.8128,1.20181 -1.39632,1.70893 -0.58356,0.50712 -1.3095,0.92394 -2.17785,1.25044 -0.86837,0.3265 -1.92082,0.48975 -3.15735,0.48975 -2.73707,0 -4.82113,-0.9934 -6.25218,-2.9802 -1.43106,-1.9868 -2.14658,-4.93922 -2.14658,-8.85726 0,-2.11184 0.21882,-3.90065 0.65648,-5.36646 0.43765,-1.46577 1.0316,-2.65716 1.78187,-3.57416 0.75026,-0.91697 1.62556,-1.58039 2.62591,-1.99028 1.00035,-0.40984 2.07016,-0.61477 3.20946,-0.6148 1.55608,3e-5 2.85515,0.30569 3.89719,0.91699 2.01458,1.18099 3.29975,3.29283 3.85551,6.33554 0.26397,1.45886 0.39596,3.0358 0.39597,4.73082 l 0,0.50018 z m 10.25357,-2.87601 c -1e-5,-2.51475 -0.46892,-4.28272 -1.40674,-5.30393 -0.93784,-1.02117 -2.1709,-1.53177 -3.6992,-1.53179 -1.08372,2e-5 -2.13965,0.45852 -3.16778,1.37548 -1.25044,1.06984 -1.91039,2.88992 -1.97985,5.46024 z"
         style="font-family:Liberation Sans Narrow;-inkscape-font-specification:Liberation Sans Narrow"
         id="path3055" />
      <path
         d="m 586.7675,264.55441 c 0,1.29213 0.0764,2.48004 0.22925,3.56374 0.15283,1.08372 0.40986,2.01807 0.7711,2.80306 0.36123,0.785 0.84057,1.39286 1.438,1.82356 0.59743,0.43071 1.34074,0.64606 2.22995,0.64606 1.09759,0 2.01111,-0.36124 2.74054,-1.08372 0.72941,-0.72247 1.17748,-1.83396 1.34422,-3.33449 l 3.12609,0.25009 c -0.0973,0.93088 -0.31957,1.82703 -0.6669,2.68843 -0.34736,0.86142 -0.8128,1.61863 -1.39632,2.27163 -0.58355,0.65301 -1.29908,1.17749 -2.14658,1.57346 -0.84753,0.39598 -1.82009,0.59396 -2.91769,0.59396 -1.44496,0 -2.67802,-0.29871 -3.69921,-0.89614 -1.02119,-0.59743 -1.84787,-1.42064 -2.48003,-2.46962 -0.63217,-1.04897 -1.09066,-2.28551 -1.37548,-3.70962 -0.28482,-1.4241 -0.42723,-2.96978 -0.42723,-4.63704 0,-1.5144 0.1042,-2.85167 0.31261,-4.01181 0.2084,-1.16012 0.4967,-2.17436 0.86488,-3.04273 0.36818,-0.86834 0.80236,-1.59776 1.30254,-2.18827 0.50017,-0.59046 1.0455,-1.06285 1.63599,-1.41716 0.59048,-0.35427 1.20875,-0.6113 1.85481,-0.7711 0.64605,-0.15976 1.30253,-0.23964 1.96944,-0.23967 1.04202,3e-5 1.96595,0.1737 2.7718,0.52102 0.80582,0.34736 1.50398,0.82322 2.09448,1.42758 0.59047,0.6044 1.06633,1.31645 1.42758,2.13616 0.36122,0.81975 0.61826,1.702 0.7711,2.64676 l -3.16777,0.29177 c -0.15284,-1.25042 -0.55576,-2.24382 -1.20875,-2.98021 -0.65302,-0.73635 -1.57695,-1.10453 -2.7718,-1.10455 -0.87532,2e-5 -1.60821,0.17716 -2.19869,0.53143 -0.59049,0.35431 -1.06635,0.88922 -1.42758,1.60473 -0.36124,0.71554 -0.61827,1.61516 -0.7711,2.69886 -0.15284,1.08372 -0.22925,2.355 -0.22925,3.81383 z"
         style="font-family:Liberation Sans Narrow;-inkscape-font-specification:Liberation Sans Narrow"
         id="path3057" />
      <path
         d="m 601.89781,248.59051 0,-3.58459 3.08441,0 0,3.58459 z m 0,27.34287 0,-22.54954 3.08441,0 0,22.54954 z"
         style="font-family:Liberation Sans Narrow;-inkscape-font-specification:Liberation Sans Narrow"
         id="path3059" />
      <path
         d="m 614.38131,276.35019 c -1.86177,0 -3.25808,-0.59743 -4.18896,-1.79229 -0.93088,-1.19486 -1.39632,-2.83432 -1.39632,-4.91838 0,-1.48662 0.23272,-2.7058 0.69816,-3.65753 0.46544,-0.95171 1.06981,-1.6985 1.81313,-2.24036 0.74331,-0.54185 1.5943,-0.91698 2.55298,-1.1254 0.95866,-0.20839 1.93122,-0.32649 2.91768,-0.35429 l 4.16812,-0.0834 0,-1.2296 c -10e-6,-0.93086 -0.0799,-1.7228 -0.23967,-2.37582 -0.15979,-0.65299 -0.4064,-1.18095 -0.73984,-1.58389 -0.33346,-0.4029 -0.7468,-0.69814 -1.24001,-0.88573 -0.49324,-0.18754 -1.08025,-0.28132 -1.76103,-0.28134 -0.59744,2e-5 -1.13235,0.0521 -1.60473,0.1563 -0.4724,0.10422 -0.88573,0.29179 -1.24002,0.5627 -0.35429,0.27094 -0.63912,0.63913 -0.85446,1.10455 -0.21536,0.46546 -0.35777,1.05247 -0.42723,1.76103 l -3.20946,-0.35429 c 0.11115,-0.88918 0.3265,-1.70544 0.64606,-2.44877 0.31955,-0.7433 0.7711,-1.38588 1.35464,-1.92776 0.58353,-0.54183 1.31643,-0.96212 2.19868,-1.26085 0.88225,-0.2987 1.95554,-0.44805 3.21988,-0.44808 2.32024,3e-5 4.06738,0.64956 5.24141,1.9486 1.17401,1.29908 1.76101,3.17821 1.76103,5.63738 l 0,9.71173 c -2e-5,1.1115 0.11808,1.9486 0.35429,2.51129 0.23618,0.5627 0.69467,0.84405 1.37548,0.84404 0.16671,10e-6 0.33691,-0.0139 0.5106,-0.0417 0.17365,-0.0278 0.3369,-0.0625 0.48975,-0.1042 l 0,2.33415 c -0.38904,0.11115 -0.77459,0.19451 -1.15665,0.25008 -0.3821,0.0556 -0.78849,0.0834 -1.21918,0.0834 -0.58355,0 -1.08373,-0.0938 -1.50052,-0.28135 -0.41683,-0.18757 -0.75375,-0.47239 -1.01077,-0.85447 -0.25705,-0.38207 -0.45504,-0.85446 -0.59396,-1.41716 -0.13895,-0.56269 -0.22926,-1.21917 -0.27093,-1.96944 l -0.0834,0 c -0.33346,0.72248 -0.69817,1.37549 -1.09413,1.95902 -0.39598,0.58354 -0.85448,1.08024 -1.37548,1.4901 -0.52103,0.40987 -1.11846,0.72595 -1.79229,0.94825 -0.67386,0.2223 -1.44149,0.33345 -2.30289,0.33345 z m 0.70858,-2.81348 c 0.98645,0 1.84439,-0.21882 2.57382,-0.65648 0.72941,-0.43765 1.33726,-0.99687 1.82355,-1.67767 0.48627,-0.68079 0.85098,-1.4241 1.09413,-2.22994 0.24313,-0.80583 0.3647,-1.57693 0.36471,-2.31331 l 0,-1.85481 -3.37618,0.0834 c -0.75027,0.0139 -1.46579,0.0799 -2.14658,0.19798 -0.6808,0.11811 -1.27476,0.35083 -1.78187,0.69817 -0.50713,0.34735 -0.91352,0.83363 -1.21918,1.45884 -0.30566,0.62522 -0.45849,1.44495 -0.45849,2.45919 0,1.22265 0.27092,2.16743 0.81278,2.83432 0.54185,0.6669 1.31296,1.00035 2.31331,1.00035 z"
         style="font-family:Liberation Sans Narrow;-inkscape-font-specification:Liberation Sans Narrow"
         id="path3061" />
      <path
         d="m 629.17814,275.93338 0,-30.92746 3.08441,0 0,30.92746 z"
         style="font-family:Liberation Sans Narrow;-inkscape-font-specification:Liberation Sans Narrow"
         id="path3063" />
      <path
         d="m 636.91001,248.59051 0,-3.58459 3.08441,0 0,3.58459 z m 0,27.34287 0,-22.54954 3.08441,0 0,22.54954 z"
         style="font-family:Liberation Sans Narrow;-inkscape-font-specification:Liberation Sans Narrow"
         id="path3065" />
      <path
         d="m 658.56341,269.70204 c -10e-6,1.05593 -0.16674,1.99723 -0.50017,2.8239 -0.33347,0.82668 -0.81975,1.52137 -1.45884,2.08406 -0.63913,0.5627 -1.42412,0.9934 -2.35499,1.29212 -0.93089,0.29871 -1.99376,0.44807 -3.18861,0.44807 -1.06983,0 -2.03544,-0.10073 -2.89685,-0.30219 -0.86141,-0.20146 -1.61515,-0.52448 -2.2612,-0.96908 -0.64607,-0.4446 -1.18792,-1.03161 -1.62557,-1.76104 -0.43765,-0.72941 -0.76068,-1.62209 -0.96909,-2.67801 l 2.70928,-0.64606 c 0.26398,1.20876 0.80583,2.09448 1.62557,2.65717 0.81972,0.5627 1.95901,0.84405 3.41786,0.84405 0.66689,0 1.27474,-0.0556 1.82355,-0.16673 0.54879,-0.11114 1.02465,-0.30218 1.42758,-0.57311 0.40291,-0.27093 0.71552,-0.63216 0.93783,-1.08371 0.22228,-0.45155 0.33343,-1.01077 0.33345,-1.67767 -2e-5,-0.68079 -0.13201,-1.24001 -0.39597,-1.67767 -0.264,-0.43765 -0.62871,-0.80236 -1.09414,-1.09413 -0.46545,-0.29176 -1.03162,-0.54185 -1.6985,-0.75026 l -2.20911,-0.72943 c -0.73637,-0.23618 -1.46927,-0.50016 -2.19868,-0.79194 -0.72943,-0.29176 -1.38591,-0.67731 -1.96944,-1.15665 -0.58354,-0.47932 -1.0594,-1.07328 -1.42758,-1.78187 -0.36819,-0.70857 -0.55228,-1.59777 -0.55228,-2.6676 0,-2.05626 0.6009,-3.62277 1.80271,-4.69956 1.20181,-1.07674 2.95589,-1.61512 5.26226,-1.61515 2.04237,3e-5 3.66446,0.43768 4.86628,1.31296 1.20179,0.87533 1.96247,2.27859 2.28205,4.2098 l -2.77181,0.41682 c -0.0973,-0.58352 -0.28483,-1.07328 -0.56269,-1.46927 -0.27789,-0.39595 -0.61134,-0.7155 -1.00035,-0.95866 -0.38904,-0.24312 -0.82322,-0.4168 -1.30254,-0.52102 -0.47934,-0.10418 -0.98299,-0.15628 -1.51094,-0.1563 -1.38938,2e-5 -2.41405,0.25705 -3.07399,0.7711 -0.65996,0.51409 -0.98994,1.29213 -0.98993,2.33415 -10e-6,0.61134 0.12157,1.11499 0.36471,1.51094 0.24314,0.39599 0.58353,0.72944 1.02119,1.00035 0.43765,0.27094 0.96213,0.50366 1.57347,0.69816 l 2.04238,0.64606 c -10e-6,1e-5 0.50016,0.15979 1.50052,0.47933 0.51406,0.18063 1.01423,0.39251 1.50052,0.63564 0.48627,0.24315 0.94129,0.52798 1.36506,0.85447 0.42375,0.32651 0.7954,0.71901 1.11497,1.17749 0.31954,0.4585 0.57311,0.99341 0.76069,1.60473 0.18755,0.61133 0.28133,1.31991 0.28134,2.12574 z"
         style="font-family:Liberation Sans Narrow;-inkscape-font-specification:Liberation Sans Narrow"
         id="path3067" />
      <path
         d="m 669.31716,275.76666 c -0.47239,0.15283 -0.95173,0.2744 -1.438,0.36471 -0.48629,0.0903 -1.04898,0.13546 -1.68809,0.13546 -2.45919,0 -3.68879,-1.70198 -3.68879,-5.10595 l 0,-15.04692 -2.14658,0 0,-2.73012 2.27163,0 0.89614,-5.04342 2.06322,0 0,5.04342 3.41786,0 0,2.73012 -3.41786,0 0,14.23414 c 0,1.08371 0.14588,1.8444 0.43766,2.28204 0.29176,0.43766 0.79193,0.65649 1.50052,0.65648 0.29176,10e-6 0.58006,-0.0278 0.86488,-0.0834 0.28482,-0.0556 0.59395,-0.12504 0.92741,-0.20841 z"
         style="font-family:Liberation Sans Narrow;-inkscape-font-specification:Liberation Sans Narrow"
         id="path3069" />
      <path
         d="m 685.82291,269.70204 c -2e-5,1.05593 -0.16675,1.99723 -0.50018,2.8239 -0.33346,0.82668 -0.81974,1.52137 -1.45884,2.08406 -0.63913,0.5627 -1.42412,0.9934 -2.35499,1.29212 -0.93089,0.29871 -1.99376,0.44807 -3.18861,0.44807 -1.06983,0 -2.03544,-0.10073 -2.89685,-0.30219 -0.86141,-0.20146 -1.61515,-0.52448 -2.2612,-0.96908 -0.64606,-0.4446 -1.18792,-1.03161 -1.62557,-1.76104 -0.43765,-0.72941 -0.76068,-1.62209 -0.96909,-2.67801 l 2.70928,-0.64606 c 0.26398,1.20876 0.80583,2.09448 1.62557,2.65717 0.81972,0.5627 1.95901,0.84405 3.41786,0.84405 0.66689,0 1.27474,-0.0556 1.82355,-0.16673 0.54879,-0.11114 1.02465,-0.30218 1.42758,-0.57311 0.40291,-0.27093 0.71552,-0.63216 0.93783,-1.08371 0.22229,-0.45155 0.33344,-1.01077 0.33345,-1.67767 -1e-5,-0.68079 -0.132,-1.24001 -0.39597,-1.67767 -0.264,-0.43765 -0.62871,-0.80236 -1.09413,-1.09413 -0.46546,-0.29176 -1.03163,-0.54185 -1.69851,-0.75026 l -2.20911,-0.72943 c -0.73637,-0.23618 -1.46927,-0.50016 -2.19868,-0.79194 -0.72943,-0.29176 -1.38591,-0.67731 -1.96944,-1.15665 -0.58354,-0.47932 -1.0594,-1.07328 -1.42758,-1.78187 -0.36819,-0.70857 -0.55228,-1.59777 -0.55228,-2.6676 0,-2.05626 0.60091,-3.62277 1.80272,-4.69956 1.2018,-1.07674 2.95588,-1.61512 5.26225,-1.61515 2.04237,3e-5 3.66446,0.43768 4.86628,1.31296 1.20179,0.87533 1.96247,2.27859 2.28205,4.2098 l -2.7718,0.41682 c -0.0973,-0.58352 -0.28484,-1.07328 -0.5627,-1.46927 -0.27789,-0.39595 -0.61134,-0.7155 -1.00035,-0.95866 -0.38904,-0.24312 -0.82321,-0.4168 -1.30254,-0.52102 -0.47934,-0.10418 -0.98299,-0.15628 -1.51094,-0.1563 -1.38938,2e-5 -2.41404,0.25705 -3.07399,0.7711 -0.65996,0.51409 -0.98993,1.29213 -0.98993,2.33415 0,0.61134 0.12157,1.11499 0.36471,1.51094 0.24314,0.39599 0.58353,0.72944 1.02119,1.00035 0.43765,0.27094 0.96214,0.50366 1.57347,0.69816 l 2.04238,0.64606 c -10e-6,1e-5 0.50016,0.15979 1.50052,0.47933 0.51406,0.18063 1.01423,0.39251 1.50052,0.63564 0.48627,0.24315 0.94129,0.52798 1.36506,0.85447 0.42375,0.32651 0.7954,0.71901 1.11498,1.17749 0.31954,0.4585 0.5731,0.99341 0.76068,1.60473 0.18755,0.61133 0.28133,1.31991 0.28135,2.12574 z"
         style="font-family:Liberation Sans Narrow;-inkscape-font-specification:Liberation Sans Narrow"
         id="path3071" />
    </g>
  </g>
</svg>
