<?xml version="1.0" encoding="UTF-8" standalone="no"?>
<!-- Created with Inkscape (http://www.inkscape.org/) -->

<svg
   xmlns:dc="http://purl.org/dc/elements/1.1/"
   xmlns:cc="http://creativecommons.org/ns#"
   xmlns:rdf="http://www.w3.org/1999/02/22-rdf-syntax-ns#"
   xmlns:svg="http://www.w3.org/2000/svg"
   xmlns="http://www.w3.org/2000/svg"
   xmlns:xlink="http://www.w3.org/1999/xlink"
   xmlns:sodipodi="http://sodipodi.sourceforge.net/DTD/sodipodi-0.dtd"
   xmlns:inkscape="http://www.inkscape.org/namespaces/inkscape"
   width="744.09448819"
   height="1052.3622047"
   id="svg3133"
   version="1.1"
   inkscape:version="0.48.5 r10040"
   sodipodi:docname="wizlogo4.svg">
  <defs
     id="defs3135">
    <linearGradient
       gradientTransform="matrix(0.31631906,0,0,0.31631906,363.93724,-429.74837)"
       inkscape:collect="always"
       xlink:href="#linearGradient3944"
       id="linearGradient3958"
       x1="0"
       y1="1772.3622"
       x2="0"
       y2="2172.3623"
       gradientUnits="userSpaceOnUse" />
    <linearGradient
       id="linearGradient3944">
      <stop
         style="stop-color:#666666;stop-opacity:1;"
         offset="0"
         id="stop3946" />
      <stop
         style="stop-color:#222222;stop-opacity:1;"
         offset="1"
         id="stop3948" />
    </linearGradient>
    <linearGradient
       inkscape:collect="always"
       xlink:href="#coin-gradient"
       id="linearGradient3826"
       gradientUnits="userSpaceOnUse"
       gradientTransform="matrix(6.1687573,0,0,6.1694768,-197.39343,854.9521)"
       x1="0.0004394635"
       y1="-0.00059563987"
       x2="0.0004394635"
       y2="63.996323" />
    <linearGradient
       y2="63.996323"
       x2="0.0004394635"
       y1="-0.00059563987"
       x1="0.0004394635"
       id="coin-gradient"
       gradientTransform="scale(0.99994167,1.0000583)"
       gradientUnits="userSpaceOnUse">
      <stop
         id="stop12"
         style="stop-color:#f9aa4b"
         offset="0%" />
      <stop
         id="stop14"
         style="stop-color:#f7931a"
         offset="100%" />
    </linearGradient>
    <linearGradient
       gradientUnits="userSpaceOnUse"
       gradientTransform="scale(0.99994167,1.0000583)"
       id="linearGradient3870"
       x1="0.0004394635"
       y1="-0.00059563987"
       x2="0.0004394635"
       y2="63.996323">
      <stop
         offset="0"
         style="stop-color:#f7931a;stop-opacity:1;"
         id="stop3872" />
      <stop
         offset="100%"
         style="stop-color:#f7931a"
         id="stop3874" />
    </linearGradient>
    <radialGradient
       inkscape:collect="always"
       xlink:href="#coin-gradient"
       id="radialGradient3862"
       cx="250"
       cy="295.67776"
       fx="250"
       fy="295.67776"
       r="66.573959"
       gradientTransform="matrix(1,0,0,0.95105652,0,14.471498)"
       gradientUnits="userSpaceOnUse"
       spreadMethod="pad" />
    <radialGradient
       inkscape:collect="always"
       xlink:href="#linearGradient3870"
       id="radialGradient3250"
       gradientUnits="userSpaceOnUse"
       spreadMethod="pad"
       cx="230"
       cy="722.36218"
       fx="230"
       fy="722.36218"
       r="70" />
  </defs>
  <sodipodi:namedview
     id="base"
     pagecolor="#ffffff"
     bordercolor="#666666"
     borderopacity="1.0"
     inkscape:pageopacity="0.0"
     inkscape:pageshadow="2"
     inkscape:zoom="0.35"
     inkscape:cx="375"
     inkscape:cy="520"
     inkscape:document-units="px"
     inkscape:current-layer="layer1"
     showgrid="false"
     inkscape:window-width="928"
     inkscape:window-height="814"
     inkscape:window-x="75"
     inkscape:window-y="195"
     inkscape:window-maximized="0" />
  <metadata
     id="metadata3138">
    <rdf:RDF>
      <cc:Work
         rdf:about="">
        <dc:format>image/svg+xml</dc:format>
        <dc:type
           rdf:resource="http://purl.org/dc/dcmitype/StillImage" />
        <dc:title></dc:title>
      </cc:Work>
    </rdf:RDF>
  </metadata>
  <g
     inkscape:label="Layer 1"
     inkscape:groupmode="layer"
     id="layer1">
    <g
       id="g4005"
       transform="matrix(0.31631906,0,0,0.31631906,187.95084,-136.76601)"
       inkscape:export-filename="C:\Users\Kim\Projects\wizsec\webtemplates\html\assets\images\wizlogo5.png"
       inkscape:export-xdpi="21.959999"
       inkscape:export-ydpi="21.959999">
      <path
         inkscape:connector-curvature="0"
         id="path3818"
         d="M 191.48242,1100.119 C 165.11561,1205.8762 58.00123,1270.2385 -47.768284,1243.8657 -153.49461,1217.4988 -217.85701,1110.3783 -191.47786,1004.6272 -165.1234,898.85771 -58.009018,834.48915 47.72965,860.85595 153.493,887.22276 217.84923,994.35565 191.48242,1100.119 z"
         style="fill:url(#linearGradient3826)" />
      <path
         transform="matrix(0.75715316,0,0,0.75715316,-174.14526,97.373886)"
         d="m 300,722.36218 c 0,38.65994 -31.34007,70 -70,70 -38.65993,0 -70,-31.34006 -70,-70 0,-38.65993 31.34007,-70 70,-70 38.65993,0 70,31.34007 70,70 z"
         sodipodi:ry="70"
         sodipodi:rx="70"
         sodipodi:cy="722.36218"
         sodipodi:cx="230"
         id="path3828"
         style="fill:url(#radialGradient3250);fill-opacity:1;stroke:none"
         sodipodi:type="arc" />
      <use
         height="1052.3622"
         width="744.09448"
         transform="translate(388.0781,281.95527)"
         id="use3838"
         xlink:href="#path3828"
         y="0"
         x="0" />
      <use
         height="1052.3622"
         width="744.09448"
         transform="translate(-148.23266,456.21317)"
         id="use3840"
         xlink:href="#use3838"
         y="0"
         x="0" />
      <use
         height="1052.3622"
         width="744.09448"
         transform="translate(-479.69092,-1.2455995e-5)"
         id="use3842"
         xlink:href="#use3840"
         y="0"
         x="0" />
      <use
         height="1052.3622"
         width="744.09448"
         transform="translate(-148.23264,-456.21319)"
         id="use3844"
         xlink:href="#use3842"
         y="0"
         x="0" />
      <path
         transform="matrix(5.8292782,0,0,5.8292782,-1457.3196,-710.19111)"
         inkscape:transform-center-y="-38.965264"
         d="m 250,232.36218 23.36748,37.83742 43.20648,10.53139 -28.76458,33.91621 3.33559,44.34617 L 250,342.11732 l -41.14497,16.87605 3.33559,-44.34617 -28.76458,-33.91621 43.20648,-10.53139 z"
         inkscape:randomized="0"
         inkscape:rounded="0"
         inkscape:flatsided="false"
         sodipodi:arg2="-0.94247777"
         sodipodi:arg1="-1.5707963"
         sodipodi:r2="39.755138"
         sodipodi:r1="70"
         sodipodi:cy="302.36218"
         sodipodi:cx="250"
         sodipodi:sides="5"
         id="path2987"
         style="fill:url(#radialGradient3862);fill-opacity:1;fill-rule:evenodd;stroke:none"
         sodipodi:type="star" />
      <path
         inkscape:connector-curvature="0"
         id="path3820"
         d="M 147.75201,1006.7865 C 154.30889,962.9574 120.9378,939.39589 75.307308,923.67792 L 90.109167,864.30578 53.969161,855.29909 39.55845,913.10663 c -9.500777,-2.36747 -19.258887,-4.60113 -28.955237,-6.81421 l 14.513645,-58.18839 -36.119419,-9.0067 -14.812153,59.35155 c -7.864132,-1.79105 -15.584156,-3.56151 -23.077726,-5.42461 l 0.04117,-0.18528 -49.840476,-12.44467 -9.614004,38.60012 c 0,0 26.814218,6.14513 26.248083,6.52599 14.637165,3.65414 17.28256,13.3402 16.839946,21.01905 l -16.860533,67.63762 c 1.00875,0.2574 2.316007,0.6279 3.757078,1.2043 -1.204323,-0.2985 -2.490994,-0.6278 -3.818838,-0.9469 l -23.633566,94.7505 c -1.79104,4.4467 -6.33042,11.1167 -16.56202,8.5847 0.36027,0.5248 -26.26867,-6.5569 -26.26867,-6.5569 l -17.94134,41.369 47.03039,11.7242 c 8.74936,2.1925 17.32373,4.4878 25.76429,6.6495 l -14.95626,60.0515 36.098832,9.0067 14.812153,-59.4133 c 9.861044,2.6763 19.433874,5.1467 28.800837,7.473 l -14.760686,59.1352 36.1400058,9.0067 14.95626,-59.9381 c 61.6263792,11.6622 107.9671182,6.9583 127.4730382,-48.7803 15.71797,-44.8791 -0.78229,-70.7669 -33.20639,-87.6481 23.61298,-5.4452 41.39991,-20.9778 46.14515,-53.0623 z m -82.573374,115.7901 c -11.168301,44.8792 -86.731897,20.6177 -111.230107,14.5342 l 19.845609,-79.5573 c 24.4982096,6.1143 103.057175,18.2192 91.384498,65.0231 z M 76.357231,1006.138 c -10.190432,40.8236 -73.0828946,20.0824 -93.484345,14.9974 L 0.86568893,948.97901 C 21.267139,954.06393 86.969691,963.55441 76.357231,1006.138 z"
         style="fill:#ffffff" />
    </g>
    <g
       style="font-size:189.79144287px;font-style:normal;font-variant:normal;font-weight:normal;font-stretch:normal;line-height:125%;letter-spacing:0px;word-spacing:0px;fill:url(#linearGradient3958);fill-opacity:1;stroke:none;font-family:Playbill;-inkscape-font-specification:Playbill"
       id="text3146">
      <path
         d="m 421.38746,130.91452 0,32.34239 -5.93099,0 -12.23265,94.15434 -15.75417,0 -6.02366,-52.63747 -6.57968,52.63747 -16.03219,0 -12.69601,-94.15434 -6.11632,0 0,-32.34239 26.87476,0 0,32.34239 -4.07755,0 5.83831,50.41335 6.209,-50.41335 -4.44824,0 0,-32.34239 25.57737,0 0,32.34239 -4.35557,0 5.83831,48.9306 5.74564,-48.9306 -4.26289,0 0,-32.34239 z"
         style=""
         id="path3009" />
      <path
         d="m 457.15869,130.91452 0,32.34239 -6.67235,0 0,60.32921 6.67235,0 0,33.82513 -30.6743,0 0,-33.82513 6.30167,0 0,-60.32921 -6.30167,0 0,-32.34239 z"
         style=""
         id="path3011" />
      <path
         d="m 512.02028,130.91452 0,33.54712 -30.85964,59.12448 15.0128,0 0,-17.6076 15.84684,0 0,51.43273 -49.30129,0 0,-33.82513 31.323,-60.32921 -14.3641,0 0,15.0128 -14.54944,0 0,-47.35519 z"
         style=""
         id="path3013" />
      <path
         d="m 564.37974,130.91452 0,44.57504 -16.86623,0 -0.27801,-3.33618 c -0.37072,-5.74555 -1.97703,-8.61837 -4.81893,-8.61846 -3.45976,9e-5 -5.18963,2.19332 -5.18961,6.57968 -2e-5,5.00435 2.99636,9.35991 8.98915,13.0667 9.45246,5.93105 15.46067,11.35234 18.02463,16.26387 2.56386,4.91165 3.84582,13.51465 3.84587,25.80904 -5e-5,22.79722 -5.80747,34.19582 -17.42226,34.19582 -6.23992,0 -11.24418,-3.67597 -15.0128,-11.02792 l 0,8.98914 -15.84685,0 0,-48.09656 15.84685,0 0,1.85344 c -2e-5,8.34048 2.1932,12.5107 6.57968,12.51066 4.07752,4e-5 6.11629,-2.93456 6.11633,-8.8038 -4e-5,-6.0545 -2.31682,-10.65718 -6.95037,-13.80807 l -9.26716,-6.39434 c -9.26717,-6.36338 -13.90075,-16.83526 -13.90074,-31.41567 -10e-6,-22.98244 5.65296,-34.47371 16.9589,-34.47384 5.62205,1.3e-4 10.07028,3.6761 13.34471,11.02792 l 0,-8.89647 z"
         style=""
         id="path3015" />
      <path
         d="m 624.52361,130.91452 0,50.59869 -14.64212,0 0,-18.2563 -12.41799,0 0,22.70454 15.47616,0 0,12.97402 -15.47616,0 0,24.65065 12.41799,0 0,-18.44165 15.84685,0 0,52.26678 -52.08144,0 0,-33.82513 6.11632,0 0,-60.32921 -6.11632,0 0,-32.34239 z"
         style=""
         id="path3017" />
      <path
         d="m 665.11376,138.1429 0,-7.22838 15.84684,0 0,50.59869 -15.84684,0 0,-2.31679 c -4e-5,-10.37913 -2.10059,-15.56873 -6.30167,-15.56883 -2.90374,1e-4 -4.67994,1.71452 -5.32862,5.14328 -0.64872,3.42893 -0.97307,13.05132 -0.97305,28.8672 -2e-5,17.36052 2.10053,26.04076 6.30167,26.04072 3.89217,4e-5 5.83827,-4.81888 5.83831,-14.45677 l 0,-5.46762 0,-4.54091 17.42226,0 c 0.61776,6.73419 0.92666,13.5301 0.92672,20.38775 -6e-5,26.56587 -8.03159,39.84879 -24.09462,39.84879 -10.93527,0 -17.90108,-3.79953 -20.89745,-11.39861 -2.99638,-7.59905 -4.49457,-25.17575 -4.49457,-52.73014 0,-26.68933 1.26651,-44.43593 3.79954,-53.23984 2.53301,-8.80367 7.62994,-13.20557 15.29081,-13.2057 5.62205,1.3e-4 9.79227,3.08918 12.51067,9.26716 z"
         style=""
         id="path3019" />
    </g>
    <g
       style="font-size:55.67215347px;font-style:normal;font-variant:normal;font-weight:normal;font-stretch:normal;line-height:125%;letter-spacing:0px;word-spacing:0px;fill:#666666;fill-opacity:1;stroke:none;font-family:Playbill;-inkscape-font-specification:Playbill"
       id="text3150">
      <path
         d="m 349.62839,268.6572 7.01339,0 c 3.4795,4e-5 5.76745,0.62526 6.86388,1.87567 1.09639,1.25049 1.64459,3.87824 1.64461,7.88327 -2e-5,2.95398 -0.29451,4.95198 -0.88347,5.994 -0.589,1.04206 -1.81679,1.7443 -3.68339,2.10673 2.13844,0.59806 3.48856,1.39092 4.05037,2.37857 0.56178,0.98769 0.84267,3.09442 0.84269,6.32021 -2e-5,4.24065 -0.54822,7.05869 -1.64461,8.45412 -1.09642,1.39543 -3.31189,2.09314 -6.64641,2.09314 l -7.55706,0 0,-9.92204 1.82131,0 0,-17.69657 -1.82131,0 z m 7.01339,9.4871 0,6.44253 0.97861,0 c 1.43166,2e-5 2.1475,-1.08732 2.14751,-3.26204 -10e-6,-2.1203 -0.76115,-3.18046 -2.28343,-3.18049 z m 0,10.52008 0,7.17649 0.84269,0 c 1.73975,1e-5 2.60962,-1.30481 2.60964,-3.91445 -2e-5,-2.17468 -0.87895,-3.26202 -2.63682,-3.26204 z"
         style=""
         id="path3022" />
      <path
         d="m 372.87043,278.1443 0,19.8169 1.60384,0 0,7.80171 -6.95902,0 0,-7.80171 1.46791,0 0,-12.39576 -1.46791,0 0,-7.42114 z m -0.24465,-9.4871 0,6.22506 -3.88727,0 0,-6.22506 z"
         style=""
         id="path3024" />
      <path
         d="m 383.11867,278.1443 0,7.42114 -2.52808,0 0,9.43274 0.0272,1.38636 c 0,1.55854 0.51649,2.33781 1.54947,2.3378 0.45306,1e-5 1.01485,-0.23559 1.68539,-0.70678 l 0,7.42114 c -1.2867,0.47119 -2.26531,0.70678 -2.93584,0.70678 -2.86335,0 -4.29502,-2.15657 -4.29502,-6.46971 l 0.0544,-1.76694 0.0272,-1.79412 0,-10.54727 -1.46791,0 0,-7.42114 c 2.30154,-1.28666 3.57918,-3.57915 3.83289,-6.87747 l 0.10874,-1.19608 c -10e-6,-0.0543 0.0181,-0.20837 0.0544,-0.46212 l 1.35918,0 0,8.53567 z"
         style=""
         id="path3026" />
      <path
         d="m 396.00373,292.82348 0.0272,0.76115 0,1.30481 0.0544,2.39216 -0.0272,1.44074 c -1e-5,4.91118 -1.70352,7.36677 -5.11053,7.36677 -2.10221,0 -3.53388,-0.84722 -4.29502,-2.54167 -0.76114,-1.69444 -1.14172,-4.89758 -1.14171,-9.60943 l 0,-5.02898 c -10e-6,-7.43017 1.78505,-11.14527 5.35518,-11.1453 3.44325,3e-5 5.16488,2.71839 5.1649,8.1551 -2e-5,1.21422 -0.10875,2.68214 -0.32621,4.40376 l -3.28922,0 0,-0.92425 0,-1.0058 0,-0.67959 -0.13592,-1.4951 c -0.14499,-0.68863 -0.54368,-1.03296 -1.19608,-1.03298 -0.99674,2e-5 -1.49511,2.14753 -1.4951,6.44253 -1e-5,4.69372 0.4893,7.04058 1.46791,7.04057 0.94236,10e-6 1.41355,-1.00579 1.41356,-3.01739 l -0.0272,-1.25044 -0.0272,-0.95143 0,-0.62523 z"
         style=""
         id="path3028" />
      <path
         d="m 398.23279,296.68356 0,-8.94342 c 0,-4.00504 0.36698,-6.66904 1.10094,-7.992 0.73396,-1.32291 2.22452,-1.98438 4.47171,-1.98441 2.22905,3e-5 3.71509,0.67962 4.45812,2.03878 0.74301,1.3592 1.11452,4.09569 1.11453,8.20946 l 0,8.31821 -0.0272,2.17469 c -10e-6,5.05616 -1.87568,7.58424 -5.62702,7.58424 -3.66074,0 -5.4911,-3.13518 -5.4911,-9.40555 z m 7.25804,-3.50669 0,-3.37077 -0.0272,-1.22327 0,-1.11453 c -10e-6,-1.52227 -0.54368,-2.28341 -1.63102,-2.28343 -1.14172,2e-5 -1.71258,1.61292 -1.71257,4.83869 l 0,3.53388 c -1e-5,2.97209 0.55272,4.45813 1.6582,4.45812 1.14171,1e-5 1.71256,-1.61288 1.71257,-4.83869 z"
         style=""
         id="path3030" />
      <path
         d="m 417.01671,278.1443 0,19.8169 1.60383,0 0,7.80171 -6.95902,0 0,-7.80171 1.46792,0 0,-12.39576 -1.46792,0 0,-7.42114 z m -0.24466,-9.4871 0,6.22506 -3.88726,0 0,-6.22506 z"
         style=""
         id="path3032" />
      <path
         d="m 433.97932,297.9612 0,7.80171 -6.57845,0 0,-7.80171 1.14171,0 0,-7.91045 0,-0.97861 -0.0272,-1.22327 c -10e-6,-1.77598 -0.41683,-2.66398 -1.25045,-2.664 -1.43168,2e-5 -2.14752,1.68541 -2.14751,5.05616 l 0,7.72017 1.38637,0 0,7.80171 -6.57845,0 0,-7.80171 1.46792,0 0,-12.39576 -1.46792,0 0,-7.42114 5.19208,0 0,3.37078 c 0.9786,-2.50087 2.30154,-3.75132 3.96881,-3.75135 2.22905,3e-5 3.34358,1.91194 3.3436,5.73575 l 0,2.06596 0,12.39576 z"
         style=""
         id="path3034" />
      <path
         d="m 455.94125,268.6572 0,13.07535 -4.94743,0 -0.0816,-0.97862 c -0.10874,-1.68536 -0.57993,-2.52805 -1.41355,-2.52808 -1.01486,3e-5 -1.52229,0.64338 -1.52229,1.93004 0,1.46795 0.87894,2.74558 2.63682,3.8329 2.77272,1.73978 4.53513,3.33002 5.28722,4.77073 0.75207,1.44075 1.12811,3.9643 1.12813,7.57066 -2e-5,6.68718 -1.70353,10.03077 -5.11053,10.03077 -1.83038,0 -3.2983,-1.07829 -4.40376,-3.23486 l 0,2.63682 -4.64841,0 0,-14.10833 4.64841,0 0,0.54368 c 0,2.44654 0.64334,3.6698 1.93004,3.66979 1.19607,1e-5 1.79411,-0.8608 1.79412,-2.58244 -1e-5,-1.77599 -0.6796,-3.12611 -2.03877,-4.05037 l -2.71837,-1.87567 c -2.71837,-1.8666 -4.07755,-4.93835 -4.07755,-9.21527 0,-6.74151 1.6582,-10.11229 4.97461,-10.11232 1.64914,3e-5 2.95395,1.07832 3.91445,3.23485 l 0,-2.60963 z"
         style=""
         id="path3036" />
      <path
         d="m 469.45153,293.91083 c 0.12684,1.05111 0.19027,2.31062 0.19028,3.77853 -1e-5,5.59984 -1.72164,8.39975 -5.16489,8.39975 -2.41029,0 -3.96429,-0.94236 -4.662,-2.8271 -0.69772,-1.88473 -1.04657,-6.09819 -1.04657,-12.6404 0,-4.98366 0.3851,-8.37255 1.1553,-10.1667 0.7702,-1.79409 2.22453,-2.69115 4.36298,-2.69118 2.12032,3e-5 3.57011,0.92427 4.34939,2.77273 0.77925,1.84852 1.16888,5.26459 1.1689,10.24825 l -0.0272,1.84849 -6.87747,0 0,2.74555 0.0816,1.332 c 0.12685,0.90613 0.57991,1.34107 1.35918,1.30481 0.90611,-0.0362 1.35917,-0.90611 1.35918,-2.60963 l 0,-0.89706 0.0272,-0.59804 z m -6.63282,-4.34939 2.90866,0 0,-1.98441 c -1e-5,-1.59475 -0.48026,-2.39214 -1.44074,-2.39216 -1.01486,2e-5 -1.52229,0.96051 -1.52228,2.88147 -10e-6,0.39871 0.0181,0.89708 0.0544,1.4951 z"
         style=""
         id="path3038" />
      <path
         d="m 482.63561,292.82348 0.0272,0.76115 0,1.30481 0.0544,2.39216 -0.0272,1.44074 c -10e-6,4.91118 -1.70352,7.36677 -5.11053,7.36677 -2.10221,0 -3.53388,-0.84722 -4.29502,-2.54167 -0.76115,-1.69444 -1.14172,-4.89758 -1.14172,-9.60943 l 0,-5.02898 c 0,-7.43017 1.78506,-11.14527 5.35519,-11.1453 3.44325,3e-5 5.16488,2.71839 5.16489,8.1551 -10e-6,1.21422 -0.10874,2.68214 -0.3262,4.40376 l -3.28922,0 0,-0.92425 0,-1.0058 0,-0.67959 -0.13592,-1.4951 c -0.14499,-0.68863 -0.54368,-1.03296 -1.19608,-1.03298 -0.99674,2e-5 -1.49511,2.14753 -1.49511,6.44253 0,4.69372 0.4893,7.04058 1.46792,7.04057 0.94236,10e-6 1.41354,-1.00579 1.41355,-3.01739 l -0.0272,-1.25044 -0.0272,-0.95143 0,-0.62523 z"
         style=""
         id="path3040" />
      <path
         d="m 496.60802,278.1443 0,19.8169 1.54947,0 0,7.80171 -5.19208,0 0,-3.39796 c -0.65242,2.48278 -1.87568,3.72416 -3.6698,3.72416 -2.55526,0 -3.83289,-2.50089 -3.83289,-7.50269 l 0,-13.02098 -1.4951,0 0,-7.42114 5.38236,0 0,16.09273 c 0,2.95397 0.51649,4.43095 1.54947,4.43094 1.2142,10e-6 1.8213,-1.90285 1.82131,-5.70857 l 0,-1.44073 0,-5.95323 -1.57666,0 0,-7.42114 z"
         style=""
         id="path3042" />
      <path
         d="m 499.48949,278.1443 5.328,0 0,3.34359 c 0.57991,-2.48275 1.47697,-3.72413 2.69118,-3.72416 1.8666,3e-5 2.79991,2.13847 2.79992,6.41535 -10e-6,2.80899 -0.0997,5.18303 -0.29902,7.12212 l -3.1533,0 c 0.14497,-1.05109 0.21746,-1.79411 0.21746,-2.22906 0,-2.59149 -0.43494,-3.88725 -1.30481,-3.88727 -0.63429,2e-5 -0.95144,1.17798 -0.95143,3.53388 l 0,9.24245 1.63102,0 0,7.80171 -6.95902,0 0,-7.80171 1.44074,0 0,-12.39576 -1.44074,0 z"
         style=""
         id="path3044" />
      <path
         d="m 517.02296,278.1443 0,19.8169 1.60383,0 0,7.80171 -6.95901,0 0,-7.80171 1.46791,0 0,-12.39576 -1.46791,0 0,-7.42114 z m -0.24466,-9.4871 0,6.22506 -3.88726,0 0,-6.22506 z"
         style=""
         id="path3046" />
      <path
         d="m 527.27119,278.1443 0,7.42114 -2.52808,0 0,9.43274 0.0272,1.38636 c 0,1.55854 0.51649,2.33781 1.54947,2.3378 0.45305,1e-5 1.01485,-0.23559 1.68539,-0.70678 l 0,7.42114 c -1.2867,0.47119 -2.26531,0.70678 -2.93584,0.70678 -2.86335,0 -4.29502,-2.15657 -4.29502,-6.46971 l 0.0544,-1.76694 0.0272,-1.79412 0,-10.54727 -1.46791,0 0,-7.42114 c 2.30154,-1.28666 3.57918,-3.57915 3.83289,-6.87747 l 0.10874,-1.19608 c -10e-6,-0.0543 0.0181,-0.20837 0.0544,-0.46212 l 1.35918,0 0,8.53567 z"
         style=""
         id="path3048" />
      <path
         d="m 542.33094,278.1443 0,7.42114 -1.332,0 -3.01739,21.312 c -0.85176,5.88979 -2.56433,8.83468 -5.13771,8.83469 -2.64588,-10e-6 -3.96882,-1.83037 -3.96882,-5.4911 0,-1.23233 0.0997,-2.52808 0.29903,-3.88726 l 2.58244,0 c -0.0725,0.50742 -0.10873,0.94236 -0.10873,1.30481 0,1.10547 0.38057,1.6582 1.14171,1.65821 0.68865,-10e-6 1.2142,-0.98768 1.57666,-2.96302 l -4.05037,-20.76833 -1.41355,0 0,-7.42114 6.57845,0 0,7.42114 -1.38637,0 2.39216,12.01518 1.4951,-12.01518 -1.4951,0 0,-7.42114 z"
         style=""
         id="path3050" />
      <path
         d="m 564.21133,268.6572 0,13.07535 -4.94743,0 -0.0815,-0.97862 c -0.10874,-1.68536 -0.57993,-2.52805 -1.41355,-2.52808 -1.01486,3e-5 -1.52229,0.64338 -1.52229,1.93004 0,1.46795 0.87894,2.74558 2.63682,3.8329 2.77272,1.73978 4.53513,3.33002 5.28722,4.77073 0.75207,1.44075 1.12811,3.9643 1.12813,7.57066 -2e-5,6.68718 -1.70353,10.03077 -5.11053,10.03077 -1.83038,0 -3.2983,-1.07829 -4.40376,-3.23486 l 0,2.63682 -4.64841,0 0,-14.10833 4.64841,0 0,0.54368 c 0,2.44654 0.64334,3.6698 1.93004,3.66979 1.19607,1e-5 1.79411,-0.8608 1.79412,-2.58244 -10e-6,-1.77599 -0.6796,-3.12611 -2.03877,-4.05037 l -2.71837,-1.87567 c -2.71837,-1.8666 -4.07755,-4.93835 -4.07755,-9.21527 0,-6.74151 1.6582,-10.11229 4.97461,-10.11232 1.64914,3e-5 2.95395,1.07832 3.91445,3.23485 l 0,-2.60963 z"
         style=""
         id="path3052" />
      <path
         d="m 566.2501,278.1443 5.30082,0 0,2.25625 c 0.86987,-1.75785 2.05689,-2.63679 3.56106,-2.63682 2.5915,3e-5 3.88725,3.23488 3.88726,9.70457 l 0,1.41355 0,6.85029 c -10e-6,6.90465 -1.26858,10.35697 -3.80571,10.35697 -1.72164,0 -2.93584,-0.84269 -3.64261,-2.52808 l 0,6.36098 1.6582,0 0,5.38237 -6.95902,0 0,-5.38237 1.41355,0 0,-24.35657 -1.41355,0 z m 8.86188,15.33159 0,-3.996 c -10e-6,-2.86333 -0.57087,-4.295 -1.71257,-4.29502 -1.10548,2e-5 -1.65821,1.51325 -1.65821,4.53967 l -0.0272,2.25625 0,1.52228 c -10e-6,3.44328 0.54367,5.16491 1.63102,5.1649 1.1417,10e-6 1.71256,-1.11452 1.71257,-3.34359 z"
         style=""
         id="path3054" />
      <path
         d="m 592.07459,293.91083 c 0.12685,1.05111 0.19027,2.31062 0.19029,3.77853 -2e-5,5.59984 -1.72165,8.39975 -5.1649,8.39975 -2.41029,0 -3.96429,-0.94236 -4.662,-2.8271 -0.69772,-1.88473 -1.04657,-6.09819 -1.04657,-12.6404 0,-4.98366 0.3851,-8.37255 1.15531,-10.1667 0.7702,-1.79409 2.22452,-2.69115 4.36297,-2.69118 2.12032,3e-5 3.57012,0.92427 4.34939,2.77273 0.77925,1.84852 1.16889,5.26459 1.1689,10.24825 l -0.0272,1.84849 -6.87746,0 0,2.74555 0.0815,1.332 c 0.12685,0.90613 0.57991,1.34107 1.35918,1.30481 0.90612,-0.0362 1.35918,-0.90611 1.35918,-2.60963 l 0,-0.89706 0.0272,-0.59804 z m -6.63281,-4.34939 2.90865,0 0,-1.98441 c -10e-6,-1.59475 -0.48025,-2.39214 -1.44074,-2.39216 -1.01486,2e-5 -1.52229,0.96051 -1.52228,2.88147 -1e-5,0.39871 0.0181,0.89708 0.0544,1.4951 z"
         style=""
         id="path3056" />
      <path
         d="m 605.25866,292.82348 0.0272,0.76115 0,1.30481 0.0544,2.39216 -0.0272,1.44074 c -10e-6,4.91118 -1.70352,7.36677 -5.11053,7.36677 -2.10221,0 -3.53388,-0.84722 -4.29502,-2.54167 -0.76114,-1.69444 -1.14171,-4.89758 -1.14171,-9.60943 l 0,-5.02898 c 0,-7.43017 1.78506,-11.14527 5.35518,-11.1453 3.44326,3e-5 5.16489,2.71839 5.1649,8.1551 -10e-6,1.21422 -0.10875,2.68214 -0.32621,4.40376 l -3.28922,0 0,-0.92425 0,-1.0058 0,-0.67959 -0.13592,-1.4951 c -0.14499,-0.68863 -0.54368,-1.03296 -1.19608,-1.03298 -0.99674,2e-5 -1.49511,2.14753 -1.4951,6.44253 -10e-6,4.69372 0.4893,7.04058 1.46792,7.04057 0.94236,10e-6 1.41354,-1.00579 1.41355,-3.01739 l -0.0272,-1.25044 -0.0272,-0.95143 0,-0.62523 z"
         style=""
         id="path3058" />
      <path
         d="m 612.46235,278.1443 0,19.8169 1.60384,0 0,7.80171 -6.95902,0 0,-7.80171 1.46792,0 0,-12.39576 -1.46792,0 0,-7.42114 z m -0.24465,-9.4871 0,6.22506 -3.88727,0 0,-6.22506 z"
         style=""
         id="path3060" />
      <path
         d="m 628.14732,297.77091 0,7.66579 c -0.76116,0.45307 -1.51324,0.6796 -2.25625,0.6796 -1.59478,0 -2.7365,-0.86988 -3.42514,-2.60964 -0.61617,1.73976 -1.64009,2.60964 -3.07176,2.60964 -2.57339,0 -3.86008,-3.07176 -3.86008,-9.21527 0,-3.22578 1.48604,-5.66325 4.45813,-7.3124 1.50415,-0.8155 2.25623,-1.69443 2.25624,-2.63682 -10e-6,-1.17794 -0.45307,-1.76692 -1.35918,-1.76694 -0.9605,2e-5 -1.44074,0.7068 -1.44074,2.12033 0,0.28998 0.0453,0.72491 0.13592,1.30481 l -3.72416,0 c -0.27184,-1.19606 -0.40776,-2.59149 -0.40776,-4.18628 0,-4.43997 1.88473,-6.65997 5.65421,-6.66 3.49762,3e-5 5.24643,2.29252 5.24644,6.87747 l 0,2.20188 0,7.88326 c -1e-5,2.21095 0.38056,3.31641 1.14172,3.31641 0.14496,0 0.36243,-0.0906 0.65241,-0.27184 z m -5.68139,-5.46392 c -2.21095,1.08736 -3.31641,2.36499 -3.31641,3.8329 0,1.26858 0.53461,1.90286 1.60384,1.90286 1.1417,0 1.71256,-1.11452 1.71257,-3.34359 z"
         style=""
         id="path3062" />
      <path
         d="m 634.88886,297.9612 1.57665,0 0,7.80171 -6.95902,0 0,-7.80171 1.4951,0 0,-21.88286 -1.4951,0 0,-7.42114 5.38237,0 z"
         style=""
         id="path3064" />
      <path
         d="m 643.12553,278.1443 0,19.8169 1.60383,0 0,7.80171 -6.95902,0 0,-7.80171 1.46792,0 0,-12.39576 -1.46792,0 0,-7.42114 z m -0.24466,-9.4871 0,6.22506 -3.88726,0 0,-6.22506 z"
         style=""
         id="path3066" />
      <path
         d="m 656.20086,278.1443 0,10.68318 -3.1533,0 0,-0.73396 c -10e-6,-1.92096 -0.6796,-2.88144 -2.03878,-2.88146 -1.06923,2e-5 -1.60384,0.53463 -1.60384,1.60383 0,0.88802 0.47118,1.60386 1.41355,2.14751 l 2.03878,1.1689 c 2.66399,1.55854 3.99599,3.99601 3.996,7.31241 -10e-6,5.78106 -1.29577,8.67159 -3.88727,8.67159 -1.72163,0 -2.92678,-0.96955 -3.61542,-2.90866 l 0,2.55527 -3.15331,0 0,-11.30841 3.15331,0 0,0.54368 c -1e-5,2.46466 0.61615,3.69698 1.84849,3.69698 1.10546,0 1.65819,-0.63428 1.6582,-1.90286 -10e-6,-1.39542 -0.63429,-2.4737 -1.90286,-3.23486 l -1.332,-0.81551 c -2.55526,-1.54039 -3.83289,-4.02316 -3.83289,-7.44832 0,-5.00177 1.24138,-7.50267 3.72416,-7.5027 1.57665,3e-5 2.7546,1.00583 3.53388,3.01739 l 0,-2.664 z"
         style=""
         id="path3068" />
      <path
         d="m 665.76951,278.1443 0,7.42114 -2.52808,0 0,9.43274 0.0272,1.38636 c 0,1.55854 0.51649,2.33781 1.54947,2.3378 0.45306,1e-5 1.01485,-0.23559 1.68539,-0.70678 l 0,7.42114 c -1.2867,0.47119 -2.26531,0.70678 -2.93584,0.70678 -2.86335,0 -4.29502,-2.15657 -4.29502,-6.46971 l 0.0544,-1.76694 0.0272,-1.79412 0,-10.54727 -1.46792,0 0,-7.42114 c 2.30155,-1.28666 3.57918,-3.57915 3.83289,-6.87747 l 0.10874,-1.19608 c 0,-0.0543 0.0181,-0.20837 0.0544,-0.46212 l 1.35918,0 0,8.53567 z"
         style=""
         id="path3070" />
      <path
         d="m 678.05654,278.1443 0,10.68318 -3.1533,0 0,-0.73396 c -10e-6,-1.92096 -0.6796,-2.88144 -2.03878,-2.88146 -1.06923,2e-5 -1.60384,0.53463 -1.60383,1.60383 -10e-6,0.88802 0.47118,1.60386 1.41355,2.14751 l 2.03877,1.1689 c 2.66399,1.55854 3.99599,3.99601 3.996,7.31241 -10e-6,5.78106 -1.29576,8.67159 -3.88726,8.67159 -1.72164,0 -2.92678,-0.96955 -3.61543,-2.90866 l 0,2.55527 -3.15331,0 0,-11.30841 3.15331,0 0,0.54368 c -1e-5,2.46466 0.61616,3.69698 1.84849,3.69698 1.10546,0 1.65819,-0.63428 1.6582,-1.90286 -10e-6,-1.39542 -0.63429,-2.4737 -1.90285,-3.23486 l -1.332,-0.81551 c -2.55527,-1.54039 -3.8329,-4.02316 -3.8329,-7.44832 0,-5.00177 1.24138,-7.50267 3.72416,-7.5027 1.57665,3e-5 2.75461,1.00583 3.53388,3.01739 l 0,-2.664 z"
         style=""
         id="path3072" />
    </g>
  </g>
</svg>
